<?xml version="1.0" encoding="utf-8"?>
<svg version="1.1" id="Layer_1" xmlns="http://www.w3.org/2000/svg" xmlns:xlink="http://www.w3.org/1999/xlink" x="0px" y="0px"
	 width="648px" height="648px" viewBox="0 0 648 648" style="enable-background:new 0 0 648 648;" xml:space="preserve">
<style type="text/css">
	.lt1{fill:#471301;}
</style>
<g>
	<path class="lt1" d="M226.02,271.02c0.49-0.61,1-1.28,1.54-2.03c0.63-0.91,1.15-1.36,1.57-1.36c0.47,0,0.77,0.12,0.91,0.35
		c0.14,0.23,0.26,0.96,0.35,2.17l0.7,10.91l0.07,1.4c0,0.93-0.37,1.4-1.12,1.4c-0.49,0-0.89-0.38-1.19-1.15
		c-0.96-2.47-2.68-5.21-5.16-8.24c-2.49-3.02-5.62-4.53-9.4-4.53c-2.8,0-5.15,0.81-7.06,2.43c-1.9,1.62-3.39,3.84-4.45,6.66
		c-1.06,2.82-1.59,6.2-1.59,10.14c0,6.74,1.48,12.1,4.44,16.07s6.65,5.96,11.06,5.96c4.78,0,9.17-2.89,13.16-8.67
		c0.49-0.7,0.95-1.05,1.39-1.05c0.74,0,1.11,0.37,1.11,1.12c0,1.54-1.84,3.99-5.51,7.34c-3.67,3.36-8.27,5.04-13.8,5.04
		c-7.32,0-13.1-2.26-17.35-6.79c-4.24-4.52-6.37-10.08-6.37-16.68c0-6.58,2.14-12.28,6.42-17.12c4.28-4.84,9.69-7.26,16.23-7.26
		C216.58,267.14,221.26,268.44,226.02,271.02z"/>
	<path class="lt1" d="M236.86,267.49l11.26,0.35c1.07,0,2.3-0.06,3.67-0.17c2.19-0.16,3.92-0.25,5.18-0.25
		c1.19,0,1.78,0.33,1.78,0.98c0,0.63-0.47,0.97-1.4,1.01c-1.68,0.09-2.93,0.69-3.76,1.8c-0.83,1.11-1.36,3.38-1.59,6.82
		c-0.23,3.44-0.35,7.22-0.35,11.35c0,6.62,0.31,11.07,0.94,13.34c0.63,2.27,1.98,4.09,4.06,5.44c2.07,1.35,4.83,2.03,8.25,2.03
		c3.47,0,6.1-0.74,7.87-2.22c1.77-1.48,2.99-3.8,3.66-6.97c0.66-3.17,1-9.05,1-17.64c0-5.08-0.4-8.58-1.19-10.52
		c-0.79-1.93-2.15-2.99-4.06-3.18c-1.38-0.14-2.06-0.55-2.06-1.22c0-0.68,0.56-1.01,1.68-1.01c0.54,0,1.43,0.06,2.69,0.19
		c1.3,0.11,2.67,0.16,4.09,0.16c1.31,0,2.76-0.07,4.37-0.21c1.21-0.09,2.05-0.14,2.52-0.14c1.17,0,1.75,0.34,1.75,1.01
		c0,0.54-0.42,0.85-1.26,0.94c-1.17,0.12-2.22,0.66-3.16,1.63c-0.95,0.97-1.55,2.56-1.82,4.79c-0.27,2.23-0.4,7.94-0.4,17.15
		c0,6.06-0.61,10.45-1.82,13.17c-1.21,2.72-3.33,4.83-6.35,6.33c-3.02,1.5-6.78,2.25-11.28,2.25c-3.47,0-6.49-0.31-9.06-0.92
		c-2.56-0.62-4.6-1.57-6.1-2.85c-1.5-1.28-2.59-2.76-3.25-4.44c-0.66-1.68-1-4.15-1-7.41l0.14-18.62c0-2.61-0.15-4.75-0.44-6.43
		c-0.29-1.68-0.75-2.79-1.38-3.34c-0.63-0.55-1.59-0.89-2.87-1.03c-0.82-0.09-1.32-0.22-1.52-0.37s-0.3-0.4-0.3-0.75
		C235.36,267.84,235.86,267.49,236.86,267.49z"/>
	<path class="lt1" d="M306.29,292.39l-0.04,13.29c0,2.8,0.4,4.61,1.19,5.44c0.79,0.83,1.99,1.26,3.6,1.31
		c1.07,0.02,1.75,0.11,2.03,0.26c0.28,0.15,0.42,0.44,0.42,0.86c0,0.61-0.68,0.91-2.03,0.91c-0.61,0-2.02-0.07-4.23-0.21
		c-2.98-0.16-5.07-0.25-6.26-0.25c-1.31,0-3.1,0.08-5.38,0.25c-1.89,0.14-3.27,0.21-4.13,0.21c-0.75,0-1.12-0.33-1.12-0.98
		c0-0.51,0.64-0.86,1.92-1.05c1.28-0.19,2.19-0.52,2.73-0.99c0.54-0.48,0.93-1.32,1.17-2.52c0.25-1.2,0.38-4.4,0.4-9.61
		c0.02-5.21,0.03-9.79,0.03-13.75l-0.03-11.01c0-1.49-0.36-2.69-1.08-3.58c-0.72-0.9-1.99-1.35-3.81-1.35
		c-0.82,0-1.22-0.33-1.22-0.98c0-0.77,0.72-1.15,2.17-1.15l0.91,0.04c1.3,0.07,2.82,0.1,4.55,0.1l14.27-0.21
		c7.23,0,12.27,1.08,15.13,3.25c2.85,2.17,4.28,5.18,4.28,9.05c0,3.86-1.53,6.97-4.6,9.31c-3.07,2.34-8.07,3.51-15.02,3.51
		C310.52,292.53,308.57,292.49,306.29,292.39z M306.29,289.91c1.33,0.12,2.35,0.17,3.08,0.17c3.71,0,6.48-1.12,8.32-3.35
		c1.84-2.23,2.76-4.9,2.76-8c0-2.93-0.85-5.13-2.53-6.6c-1.69-1.47-3.77-2.2-6.24-2.2c-1.28,0-3.08,0.2-5.38,0.59V289.91z"/>
	<path class="lt1" d="M352.56,292.39l-0.04,13.29c0,2.8,0.4,4.61,1.19,5.44c0.79,0.83,1.99,1.26,3.6,1.31
		c1.07,0.02,1.75,0.11,2.03,0.26c0.28,0.15,0.42,0.44,0.42,0.86c0,0.61-0.68,0.91-2.03,0.91c-0.61,0-2.02-0.07-4.23-0.21
		c-2.98-0.16-5.07-0.25-6.26-0.25c-1.31,0-3.1,0.08-5.38,0.25c-1.89,0.14-3.27,0.21-4.13,0.21c-0.75,0-1.12-0.33-1.12-0.98
		c0-0.51,0.64-0.86,1.92-1.05c1.28-0.19,2.19-0.52,2.73-0.99c0.54-0.48,0.93-1.32,1.17-2.52c0.25-1.2,0.38-4.4,0.4-9.61
		c0.02-5.21,0.03-9.79,0.03-13.75l-0.03-11.01c0-1.49-0.36-2.69-1.08-3.58c-0.72-0.9-1.99-1.35-3.81-1.35
		c-0.82,0-1.22-0.33-1.22-0.98c0-0.77,0.72-1.15,2.17-1.15l0.91,0.04c1.3,0.07,2.82,0.1,4.55,0.1l14.27-0.21
		c7.23,0,12.27,1.08,15.13,3.25c2.85,2.17,4.28,5.18,4.28,9.05c0,3.86-1.53,6.97-4.6,9.31c-3.07,2.34-8.07,3.51-15.02,3.51
		C356.79,292.53,354.84,292.49,352.56,292.39z M352.56,289.91c1.33,0.12,2.35,0.17,3.08,0.17c3.71,0,6.48-1.12,8.32-3.35
		c1.84-2.23,2.76-4.9,2.76-8c0-2.93-0.85-5.13-2.53-6.6c-1.69-1.47-3.77-2.2-6.24-2.2c-1.28,0-3.08,0.2-5.38,0.59V289.91z"/>
	<path class="lt1" d="M384.73,267.74c0.82,0,2.49,0.07,5.04,0.2c1.94,0.1,3.48,0.15,4.62,0.15l10.74-0.28
		c0.91,0,1.36,0.31,1.36,0.94c0,0.56-0.41,0.89-1.23,0.98c-1.84,0.19-3.07,0.53-3.69,1.03c-0.62,0.5-1.1,1.66-1.43,3.48
		c-0.34,1.82-0.51,5.93-0.51,12.34c0,7.36,0.12,13.05,0.35,17.07c0.23,4.02,0.7,6.5,1.42,7.44c0.71,0.94,1.89,1.41,3.55,1.41
		c1.14,0,1.71,0.3,1.71,0.91c0,0.82-0.62,1.23-1.85,1.23c-0.35,0-0.86-0.01-1.54-0.03c-4.38-0.3-7.38-0.46-8.99-0.46
		c-3.52,0-6.12,0.11-7.8,0.32c-0.89,0.09-1.52,0.14-1.89,0.14c-0.86,0-1.29-0.34-1.29-1.01c0-0.54,0.36-0.85,1.09-0.95
		c1.98-0.25,3.32-0.81,4-1.66c0.69-0.85,1.1-2.9,1.24-6.14c0.14-3.24,0.21-8.28,0.21-15.11c0-7.2-0.13-12.03-0.38-14.46
		c-0.26-2.44-0.68-3.94-1.28-4.49c-0.6-0.56-1.73-0.91-3.41-1.05c-0.89-0.07-1.33-0.43-1.33-1.09
		C383.44,268.04,383.87,267.74,384.73,267.74z"/>
	<path class="lt1" d="M423.1,267.81c11.17,12.71,20.48,22.9,27.94,30.57c0.02-1.58,0.03-2.61,0.03-3.08l0.03-13.83
		c0-3.26-0.19-5.59-0.56-7c-0.37-1.41-1.17-2.52-2.38-3.34c-1.21-0.82-2.62-1.29-4.23-1.43c-0.86-0.09-1.29-0.45-1.29-1.08
		c0-0.68,0.4-1.01,1.19-1.01c0.44,0,1.01,0.04,1.71,0.13c1.33,0.15,3.28,0.22,5.84,0.22c3.22,0,5.67-0.09,7.34-0.25
		c0.7-0.06,1.29-0.1,1.78-0.1c0.88,0,1.33,0.34,1.33,1.01c0,0.65-0.59,1.04-1.78,1.15c-1.47,0.14-2.84,0.76-4.11,1.85
		c-1.27,1.09-1.91,3.25-1.91,6.46l0.17,19.78l-0.25,14.89c0,1.28-0.4,1.92-1.19,1.92c-0.21,0-0.45-0.07-0.74-0.21
		c-0.28-0.14-1.88-1.75-4.81-4.84s-7.27-7.88-13.04-14.38c-5.77-6.49-9.82-11.15-12.15-13.97c-0.05,0.63-0.07,6.49-0.07,17.59
		c0,3.43,0.14,6.11,0.44,8.06c0.29,1.95,1.2,3.36,2.73,4.23c1.53,0.87,2.91,1.31,4.14,1.31c0.79,0,1.19,0.3,1.19,0.91
		c0,0.7-0.42,1.05-1.26,1.05c-0.54,0-1.21-0.05-2.03-0.14c-1.4-0.19-3.18-0.28-5.35-0.28c-3.47,0-5.99,0.11-7.56,0.31
		c-0.98,0.12-1.68,0.18-2.1,0.18c-0.91,0-1.36-0.38-1.36-1.15c0-0.56,0.73-0.9,2.2-1.01c2.63-0.21,4.28-1.12,4.95-2.73
		c0.66-1.61,1-3.8,1-6.58c0-12.03-0.06-19.39-0.19-22.07c-0.13-2.68-0.97-5.11-2.52-7.28c-1.55-2.17-3.42-3.46-5.61-3.88
		c-0.91-0.16-1.36-0.52-1.36-1.08c0-0.77,0.48-1.15,1.43-1.15c0.23,0,0.57,0.02,1.01,0.07c0.54,0.05,1.5,0.07,2.9,0.07
		C417.67,267.7,420.49,267.74,423.1,267.81z"/>
	<path class="lt1" d="M512.7,271.37l1.01,10.14c0.05,0.47,0.07,0.84,0.07,1.12c0,0.72-0.31,1.08-0.94,1.08
		c-0.58,0-1.07-0.41-1.46-1.22c-1.82-3.75-4.22-6.81-7.19-9.16c-2.98-2.36-6.4-3.53-10.27-3.53c-4.99,0-8.89,2.09-11.7,6.26
		c-2.81,4.17-4.22,9.1-4.22,14.79c0,6.34,1.56,11.54,4.67,15.58c3.11,4.05,6.78,6.07,11,6.07c1.79,0,3.62-0.41,5.47-1.24
		c1.86-0.83,3.04-1.72,3.57-2.66s0.79-2.3,0.79-4.07c0-3.92-0.16-6.36-0.47-7.33c-0.32-0.97-0.84-1.64-1.56-2.01
		c-0.73-0.37-2.2-0.69-4.43-0.94c-0.87-0.09-1.3-0.43-1.3-1.01c0-0.68,0.41-1.01,1.23-1.01h5.29l16.15-0.35
		c0.72,0,1.09,0.3,1.09,0.91c0,0.35-0.14,0.59-0.42,0.72c-0.28,0.13-1.26,0.37-2.94,0.72c-1.26,0.28-2.06,0.7-2.41,1.26
		c-0.35,0.56-0.62,4.07-0.8,10.54c-0.05,1.44-0.09,2.25-0.14,2.42c-0.05,0.17-1.43,0.97-4.14,2.38c-2.72,1.41-5.51,2.46-8.39,3.15
		c-2.88,0.69-5.74,1.03-8.59,1.03c-4.8,0-9.09-0.95-12.87-2.83c-3.78-1.89-6.82-4.55-9.13-7.99c-2.31-3.44-3.46-7.54-3.46-12.29
		c0-6.71,2.31-12.51,6.94-17.4c4.63-4.88,10.96-7.32,19.01-7.32c2.85,0,5.41,0.34,7.71,1.03c2.3,0.69,4.9,1.67,7.82,2.96
		c0.58,0.25,1.09,0.38,1.5,0.38c0.47,0,0.83-0.34,1.08-1.01c0.33-0.89,0.76-1.33,1.29-1.33
		C512.17,269.17,512.56,269.9,512.7,271.37z"/>
</g>
<g>
	<path class="lt1" d="M235.64,330.32l1.94,11.46l0.08,0.53c0,0.73-0.26,1.1-0.78,1.1c-0.35,0-0.69-0.28-1.03-0.84
		c-1.95-3.04-4.16-5.39-6.62-7.08c-2.46-1.68-6.43-2.52-11.9-2.52c-3.78,0-5.89,0.4-6.35,1.19c-0.46,0.79-0.68,7.01-0.68,18.65
		c2.81,0,4.96-0.2,6.47-0.59c1.5-0.39,2.67-1.08,3.49-2.06c0.82-0.98,1.57-2.79,2.26-5.44c0.18-0.71,0.47-1.06,0.87-1.06
		c0.76,0,1.14,0.48,1.14,1.44l-0.27,12.1c-0.08,4.2-0.19,6.46-0.34,6.77c-0.15,0.32-0.43,0.47-0.83,0.47
		c-0.63,0-1.01-0.51-1.14-1.52c-0.28-2.36-1.08-4.22-2.41-5.58c-1.33-1.36-4.41-2.04-9.24-2.04l-0.04,14.08
		c0,2.76,0.2,4.72,0.59,5.88c0.39,1.16,0.98,1.95,1.76,2.37c0.78,0.42,2.01,0.65,3.68,0.7c1.21,0.03,1.99,0.11,2.31,0.25
		c0.33,0.14,0.49,0.45,0.49,0.93c0,0.81-0.57,1.22-1.71,1.22c-1.04,0-3.01-0.09-5.92-0.27c-2.45-0.15-4.3-0.23-5.54-0.23
		l-11.99,0.38c-1.21,0-1.82-0.37-1.82-1.1c0-0.68,0.74-1.05,2.24-1.1c2.58-0.1,4.12-1.25,4.63-3.45c0.5-2.2,0.76-10.18,0.76-23.94
		c0-8.94-0.32-14.27-0.97-15.99c-0.64-1.72-2.22-2.58-4.72-2.58l-1.02,0.04c-0.91,0-1.37-0.38-1.37-1.14c0-0.71,0.73-1.06,2.2-1.06
		H235.64z"/>
	<path class="lt1" d="M454.27,330.43c0.81,3.95,1.61,7.89,2.39,11.84c0,0.74-0.37,1.1-1.1,1.1c-0.4,0-0.86-0.35-1.36-1.06
		c-2.61-3.78-4.99-6.27-7.16-7.48c-2.16-1.21-5.28-1.82-9.36-1.82c-2.28,0-4.48,0.19-6.6,0.57c-0.46,4.47-0.68,9.37-0.68,14.69
		c0,0.91,0.02,2.44,0.08,4.58l2.88,0.04c1.8,0,3.35-0.25,4.65-0.74c1.3-0.5,2.41-1.54,3.32-3.15c0.91-1.61,1.43-2.64,1.56-3.09
		c0.23-0.81,0.62-1.22,1.18-1.22c0.71,0,1.06,0.3,1.06,0.91c0,0.18-0.03,0.38-0.08,0.61c-0.3,1.57-0.46,6.26-0.46,14.08
		c0,1.09,0.1,2.08,0.29,2.96c0.06,0.25,0.09,0.47,0.09,0.64c0,0.71-0.41,1.06-1.22,1.06c-0.56,0-0.99-0.67-1.29-2.01
		c-0.51-2.35-1.66-4.14-3.47-5.37c-1.8-1.23-4.64-1.86-8.53-1.92c-0.13,4.25-0.19,7.05-0.19,8.39c0,5.77,0.09,9.19,0.26,10.28
		c0.18,1.09,0.82,1.97,1.94,2.64c1.11,0.67,3,1,5.66,1c9.64,0,15.98-3.06,19.02-9.18c0.43-0.86,0.89-1.29,1.4-1.29
		c0.73,0,1.1,0.3,1.1,0.91c0,0.4-0.08,0.92-0.23,1.55l-2.47,10.89l-13.74-0.04c-3.87-0.03-7.48-0.12-10.83-0.27
		c-3.35-0.15-5.98-0.23-7.87-0.23c-2.12,0-5.33,0.13-9.6,0.38c-0.53,0.05-0.92,0.08-1.18,0.08c-1.19,0-1.78-0.39-1.78-1.18
		c0-0.71,0.48-1.06,1.44-1.06c2.45,0,4.1-0.66,4.95-1.99c0.85-1.33,1.27-4.04,1.27-8.13l0.23-19.53c0-6.67-0.08-10.77-0.25-12.3
		s-0.6-2.57-1.31-3.11c-0.71-0.54-2.04-0.95-3.98-1.23c-0.81-0.1-1.22-0.46-1.22-1.06c0-0.76,0.47-1.14,1.4-1.14l9.15,0.28
		L454.27,330.43z"/>
</g>
</svg>
