<?xml version="1.0" encoding="utf-8"?>
<svg version="1.1" id="Layer_1" xmlns="http://www.w3.org/2000/svg" xmlns:xlink="http://www.w3.org/1999/xlink" x="0px" y="0px"
	 width="648px" height="648px" viewBox="0 0 648 648" style="enable-background:new 0 0 648 648;" xml:space="preserve">
<style type="text/css">
	.lf0{fill:#F4E6BB;}
	.lf1{fill:#471301;}
	.lf2{fill:#594A42;}
	.lf3{fill:#00E1C8;}
</style>
<g>

	<path class="lf0" d="M281.15,311.02c0,0,1.95,85.1,60.53,79.83c58.57-5.27,95.83-68.36,89.68-83.48c0,0,6.05,9.01,10.16-3.87
		c3.22-10.09,16.85-22.19,15.35-42.55c-2.36-32.12-105.34-11.81-105.34-11.81S250.44,267.09,281.15,311.02z"/>
	<g>
		<polygon class="lf1" points="317.28,330.47 305.87,322.54 305.87,298.27 308.38,298.27 308.38,321.23 318.71,328.41 		"/>
	</g>
	<path class="lf1" d="M429.71,274.18c0,0-17.71-10.86-18.66,14.64c0,0,5.67,35.9-4.25,44.4c-9.92,8.5-23.15,7.09-23.15,7.09
		s-9.45-17.01-58.1-14.64c-48.65,2.36-41.33,15.77-41.33,15.77s11.39,50.99,49.75,53.28c38.35,2.28,72.44-29.22,85.27-47.92
		C441.52,314.32,429.71,274.18,429.71,274.18z M373.26,369.6c0,0-21.26,16.06-17.81,0c3.44-16.06-2.5-10.86-2.5-10.86
		c-28.34,6.61-32.59-3.52-32.59-3.52c-6.14,30.96-25.62,9.47-24.56-6.4c1.06-15.87,38.26-13.23,38.26-13.23
		C398.29,333.22,373.26,369.6,373.26,369.6z"/>
	<g>
		<path class="lf1" d="M347.45,350.63c-21.05,0-34.78-6.96-35.47-7.32l1.15-2.23c0.2,0.1,20.09,10.16,48.13,6.02l0.37,2.48
			C356.62,350.32,351.87,350.63,347.45,350.63z"/>
	</g>
	<g>
		<path class="lf2" d="M509.53,160.34c-19.33-40.21-164.02-15.98-230.28,8.03c0,0-85.29,40.57-69.91,99.67
			c13.23,50.83,82.72,49.99,112.9,45.82C382.22,305.57,550.87,246.31,509.53,160.34z"/>
		<path class="lf0" d="M295.87,316.88c-11.12,0-24.05-0.96-36.73-4.09c-27.97-6.9-45.13-21.85-51.01-44.44
			c-15.46-59.42,69.72-100.71,70.58-101.12c60.06-21.77,211.26-50.48,231.94-7.44c9.11,18.95,8.74,37.88-1.12,56.25
			c-29.62,55.19-138.25,92.3-187.12,99.06C317.11,315.83,307.48,316.88,295.87,316.88z M442.51,140.14
			c-51.81,0-121.16,14.31-162.83,29.41c-0.73,0.35-84.06,40.76-69.12,98.17c5.63,21.63,22.17,35.98,49.18,42.63
			c25.5,6.29,52.09,3.67,62.33,2.26c22.5-3.11,61.79-13.79,98.84-30.65c30.42-13.84,70.1-36.71,86.41-67.1
			c9.46-17.62,9.82-35.78,1.08-53.97l0,0C501.2,145.9,475.38,140.14,442.51,140.14z"/>
	</g>
	<g>
		<path class="lf2" d="M275.34,208.76c0,0,1.08-38.62,15.25-86.8c0,0-2.48-20.19,11.34-27.99s19.49-9.92,48.54-9.92
			s42.16-9.92,49.95,0s40.03,80.07,40.03,80.07s13.46,17.01,0,35.43c-13.46,18.42-49.95,45.35-69.44,47.47
			S256.19,267.57,275.34,208.76z"/>
		<path class="lf0" d="M322.92,252.63c-18.49,0-36.99-2.94-45.86-13.56c-6.13-7.34-7.13-17.62-2.96-30.53
			c0.11-2.96,1.74-40.7,15.23-86.69c-0.26-2.56-1.68-21.26,11.99-28.97c13.58-7.66,19.3-10.08,49.15-10.08
			c11.58,0,20.58-1.59,27.8-2.86c10.85-1.91,18.02-3.17,23.14,3.34c7.71,9.81,38.16,75.92,40.13,80.19
			c1.24,1.67,13.16,18.7-0.07,36.81c-13.98,19.12-50.59,45.83-70.31,47.98c-1.71,0.19-4.01,0.5-6.77,0.88
			C354.6,250.47,338.76,252.63,322.92,252.63z"/>
	</g>
	<path class="lf0" d="M425.22,349.36c0,0,1.17,62.06,31.76,86.5H241.46c0,0,37.33-22.65,41.34-86.5l8.26,10.75
		c0,0-7.82,47.75-4.62,52.95c0,0,72.37,18.42,124.84-1.42c0,0,8.74-22.67,4.67-49.67L425.22,349.36z"/>
	<path class="lf3" d="M244.25,325.67c0,0,35.91-3.62,62.45,60.09c0,0,1.1,3.57,4.99,3.66c3.41,0.08,25.92-4.18,37.24,2.19
		c0,0-3.65,15.16-19.72,14.61s-24.1-16.89-24.1-16.89s-21.9-57.84-61.13-61.74C243.98,327.59,237.3,329.78,244.25,325.67z"/>
</g>
<g>
	<path class="lf1" d="M226.02,459.77c0.49-0.61,1-1.28,1.54-2.03c0.63-0.91,1.15-1.36,1.57-1.36c0.47,0,0.77,0.12,0.91,0.35
		c0.14,0.23,0.26,0.96,0.35,2.17l0.7,10.91l0.07,1.4c0,0.93-0.37,1.4-1.12,1.4c-0.49,0-0.89-0.38-1.19-1.15
		c-0.96-2.47-2.68-5.21-5.16-8.24c-2.49-3.02-5.62-4.53-9.4-4.53c-2.8,0-5.15,0.81-7.06,2.43c-1.9,1.62-3.39,3.84-4.45,6.66
		c-1.06,2.82-1.59,6.2-1.59,10.14c0,6.74,1.48,12.1,4.44,16.07s6.65,5.96,11.06,5.96c4.78,0,9.17-2.89,13.16-8.67
		c0.49-0.7,0.95-1.05,1.39-1.05c0.74,0,1.11,0.37,1.11,1.12c0,1.54-1.84,3.99-5.51,7.34c-3.67,3.36-8.27,5.04-13.8,5.04
		c-7.32,0-13.1-2.26-17.35-6.79c-4.24-4.52-6.37-10.08-6.37-16.68c0-6.58,2.14-12.28,6.42-17.12c4.28-4.84,9.69-7.26,16.23-7.26
		C216.58,455.89,221.26,457.18,226.02,459.77z"/>
	<path class="lf1" d="M512.7,460.12l1.01,10.14c0.05,0.47,0.07,0.84,0.07,1.12c0,0.72-0.31,1.08-0.94,1.08
		c-0.58,0-1.07-0.41-1.46-1.22c-1.82-3.75-4.22-6.81-7.19-9.16c-2.98-2.36-6.4-3.53-10.27-3.53c-4.99,0-8.89,2.09-11.7,6.26
		c-2.81,4.17-4.22,9.1-4.22,14.79c0,6.34,1.56,11.54,4.67,15.58c3.11,4.05,6.78,6.07,11,6.07c1.79,0,3.62-0.41,5.47-1.24
		c1.86-0.83,3.04-1.72,3.57-2.66s0.79-2.3,0.79-4.07c0-3.92-0.16-6.36-0.47-7.33c-0.32-0.97-0.84-1.64-1.56-2.01
		c-0.73-0.37-2.2-0.69-4.43-0.94c-0.87-0.09-1.3-0.43-1.3-1.01c0-0.68,0.41-1.01,1.23-1.01h5.29l16.15-0.35
		c0.72,0,1.09,0.3,1.09,0.91c0,0.35-0.14,0.59-0.42,0.72c-0.28,0.13-1.26,0.37-2.94,0.72c-1.26,0.28-2.06,0.7-2.41,1.26
		c-0.35,0.56-0.62,4.07-0.8,10.54c-0.05,1.44-0.09,2.25-0.14,2.42c-0.05,0.17-1.43,0.97-4.14,2.38c-2.72,1.41-5.51,2.46-8.39,3.15
		c-2.88,0.69-5.74,1.03-8.59,1.03c-4.8,0-9.09-0.95-12.87-2.83c-3.78-1.89-6.82-4.55-9.13-7.99c-2.31-3.44-3.46-7.54-3.46-12.29
		c0-6.71,2.31-12.51,6.94-17.4c4.63-4.88,10.96-7.32,19.01-7.32c2.85,0,5.41,0.34,7.71,1.03c2.3,0.69,4.9,1.67,7.82,2.96
		c0.58,0.25,1.09,0.38,1.5,0.38c0.47,0,0.83-0.34,1.08-1.01c0.33-0.89,0.76-1.33,1.29-1.33
		C512.17,457.92,512.56,458.65,512.7,460.12z"/>
</g>
<g>
	<path class="lf1" d="M235.64,519.06l1.94,11.46l0.08,0.53c0,0.73-0.26,1.1-0.78,1.1c-0.35,0-0.69-0.28-1.03-0.84
		c-1.95-3.04-4.16-5.39-6.62-7.08c-2.46-1.68-6.43-2.52-11.9-2.52c-3.78,0-5.89,0.4-6.35,1.19c-0.46,0.79-0.68,7.01-0.68,18.65
		c2.81,0,4.96-0.2,6.47-0.59c1.5-0.39,2.67-1.08,3.49-2.06c0.82-0.98,1.57-2.79,2.26-5.44c0.18-0.71,0.47-1.06,0.87-1.06
		c0.76,0,1.14,0.48,1.14,1.44l-0.27,12.1c-0.08,4.2-0.19,6.46-0.34,6.77c-0.15,0.32-0.43,0.47-0.83,0.47
		c-0.63,0-1.01-0.51-1.14-1.52c-0.28-2.36-1.08-4.22-2.41-5.58c-1.33-1.36-4.41-2.04-9.24-2.04l-0.04,14.08
		c0,2.76,0.2,4.72,0.59,5.88s0.98,1.95,1.76,2.37c0.78,0.42,2.01,0.65,3.68,0.7c1.21,0.03,1.99,0.11,2.31,0.25
		c0.33,0.14,0.49,0.45,0.49,0.93c0,0.81-0.57,1.22-1.71,1.22c-1.04,0-3.01-0.09-5.92-0.27c-2.45-0.15-4.3-0.23-5.54-0.23
		l-11.99,0.38c-1.21,0-1.82-0.37-1.82-1.1c0-0.68,0.74-1.05,2.24-1.1c2.58-0.1,4.12-1.25,4.63-3.45c0.5-2.2,0.76-10.18,0.76-23.94
		c0-8.94-0.32-14.27-0.97-15.99c-0.64-1.72-2.22-2.58-4.72-2.58l-1.02,0.04c-0.91,0-1.37-0.38-1.37-1.14c0-0.71,0.73-1.06,2.2-1.06
		H235.64z"/>
	<path class="lf1" d="M357.47,518.99c0.66,1.57,1.87,4.05,3.65,7.45c1.77,3.4,3.53,6.86,5.26,10.36c1.74,3.5,3.69,7.19,5.87,11.06
		c1.75,3.06,2.74,4.86,2.97,5.39c6.34-14.19,11.13-25.61,14.39-34.26c6.08,0,11.68-0.15,16.82-0.46c0.48-0.02,0.83-0.04,1.06-0.04
		c1.04,0,1.56,0.4,1.56,1.21c0,0.71-0.4,1.06-1.21,1.06c-2.88,0-4.78,0.98-5.67,2.94c-0.9,1.96-1.35,6.73-1.35,14.32l-0.04,18.59
		c0,3.79,0.5,6.45,1.5,7.97c1,1.52,2.62,2.32,4.87,2.39c1.09,0.02,1.63,0.39,1.63,1.1c0,0.38-0.23,0.7-0.68,0.95l-10.65-0.08
		c-3.26,0-7.72,0.12-13.37,0.38c-0.48-0.33-0.72-0.68-0.72-1.06c0-0.58,0.65-0.97,1.96-1.18c1.33-0.23,2.29-0.56,2.88-0.99
		c0.59-0.43,1.04-1.23,1.34-2.39c0.3-1.16,0.45-2.87,0.45-5.13l0.15-16.98c0-8.68,0.01-13.69,0.04-15
		c-6.87,15.99-11.13,26.19-12.77,30.62l-3.83,10.29c-0.43,1.09-0.86,1.63-1.29,1.63c-0.46,0-1-0.67-1.63-2.01
		c-1.85-3.9-8.45-16.76-19.79-38.59c-0.13,6.28-0.19,14.75-0.19,25.41c0,5.62,0.32,9.17,0.95,10.65c0.63,1.48,2.4,2.35,5.31,2.6
		c0.96,0.1,1.44,0.46,1.44,1.06c0,0.66-0.39,0.99-1.18,0.99c-0.28,0-0.58-0.01-0.91-0.04c-3.04-0.23-5.21-0.34-6.53-0.34
		c-3.59,0-6.31,0.13-8.16,0.38c-0.36,0.05-0.62,0.08-0.8,0.08c-0.89,0-1.33-0.37-1.33-1.1c0-0.36,0.11-0.6,0.32-0.74
		c0.22-0.14,0.79-0.31,1.73-0.51c2.43-0.46,4.01-1.33,4.76-2.62c0.74-1.29,1.12-3.4,1.12-6.34l0.19-21.69c0-4.94-0.13-8.2-0.38-9.8
		s-0.87-2.82-1.86-3.68c-0.99-0.86-2.6-1.51-4.82-1.94c-0.83-0.18-1.25-0.6-1.25-1.25c0-0.71,0.46-1.06,1.36-1.06
		c0.2,0,0.48,0.01,0.84,0.04C344.08,518.87,349.4,518.99,357.47,518.99z"/>
	<path class="lf1" d="M454.27,519.18c0.81,3.95,1.61,7.89,2.39,11.84c0,0.74-0.37,1.1-1.1,1.1c-0.4,0-0.86-0.35-1.36-1.06
		c-2.61-3.78-4.99-6.27-7.16-7.48c-2.16-1.21-5.28-1.82-9.36-1.82c-2.28,0-4.48,0.19-6.6,0.57c-0.46,4.47-0.68,9.37-0.68,14.69
		c0,0.91,0.02,2.44,0.08,4.58l2.88,0.04c1.8,0,3.35-0.25,4.65-0.74c1.3-0.5,2.41-1.54,3.32-3.15c0.91-1.61,1.43-2.64,1.56-3.09
		c0.23-0.81,0.62-1.22,1.18-1.22c0.71,0,1.06,0.3,1.06,0.91c0,0.18-0.03,0.38-0.08,0.61c-0.3,1.57-0.46,6.26-0.46,14.08
		c0,1.09,0.1,2.08,0.29,2.96c0.06,0.25,0.09,0.47,0.09,0.64c0,0.71-0.41,1.06-1.22,1.06c-0.56,0-0.99-0.67-1.29-2.01
		c-0.51-2.35-1.66-4.14-3.47-5.37c-1.8-1.23-4.64-1.86-8.53-1.92c-0.13,4.25-0.19,7.05-0.19,8.39c0,5.77,0.09,9.19,0.26,10.28
		c0.18,1.09,0.82,1.97,1.94,2.64c1.11,0.67,3,1,5.66,1c9.64,0,15.98-3.06,19.02-9.18c0.43-0.86,0.89-1.29,1.4-1.29
		c0.73,0,1.1,0.3,1.1,0.91c0,0.4-0.08,0.92-0.23,1.55l-2.47,10.89l-13.74-0.04c-3.87-0.03-7.48-0.12-10.83-0.27
		c-3.35-0.15-5.98-0.23-7.87-0.23c-2.12,0-5.33,0.13-9.6,0.38c-0.53,0.05-0.92,0.08-1.18,0.08c-1.19,0-1.78-0.39-1.78-1.18
		c0-0.71,0.48-1.06,1.44-1.06c2.45,0,4.1-0.66,4.95-1.99c0.85-1.33,1.27-4.04,1.27-8.13l0.23-19.53c0-6.67-0.08-10.77-0.25-12.3
		s-0.6-2.57-1.31-3.11c-0.71-0.54-2.04-0.95-3.98-1.23c-0.81-0.1-1.22-0.46-1.22-1.06c0-0.76,0.47-1.14,1.4-1.14l9.15,0.28
		L454.27,519.18z"/>
</g>
</svg>
