<?xml version="1.0" encoding="utf-8"?>
<svg version="1.1" id="Layer_1" xmlns="http://www.w3.org/2000/svg" xmlns:xlink="http://www.w3.org/1999/xlink" x="0px" y="0px"
	 width="648px" height="648px" viewBox="0 0 648 648" style="enable-background:new 0 0 648 648;" xml:space="preserve">
<style type="text/css">
	.st0{fill:#F4E6BB;}
	.st1{fill:#471301;}
	.st2{fill:#594A42;}
	.st3{fill:#00E1C8;}
</style>
<g>
	<rect x="162.66" y="194.62" class="st1" width="308.11" height="308.11"/>
	<path class="st0" d="M256.18,377.9c0,0,1.95,85.1,60.53,79.83c58.57-5.27,95.83-68.36,89.68-83.48c0,0,6.05,9.01,10.16-3.87
		c3.22-10.09,16.85-22.19,15.35-42.55c-2.36-32.12-105.34-11.81-105.34-11.81S225.48,333.97,256.18,377.9z"/>
	<g>
		<polygon class="st1" points="292.31,397.35 280.91,389.42 280.91,365.14 283.42,365.14 283.42,388.1 293.74,395.29 		"/>
	</g>
	<path class="st1" d="M404.74,341.05c0,0-17.71-10.86-18.66,14.64c0,0,5.67,35.9-4.25,44.4c-9.92,8.5-23.15,7.09-23.15,7.09
		s-9.45-17.01-58.1-14.64s-41.33,15.77-41.33,15.77s11.39,50.99,49.75,53.28c38.35,2.28,72.44-29.22,85.27-47.92
		C416.55,381.2,404.74,341.05,404.74,341.05z M348.29,436.47c0,0-21.26,16.06-17.81,0c3.44-16.06-2.5-10.86-2.5-10.86
		c-28.34,6.61-32.59-3.52-32.59-3.52c-6.14,30.96-25.62,9.47-24.56-6.4c1.06-15.87,38.26-13.23,38.26-13.23
		C373.33,400.1,348.29,436.47,348.29,436.47z"/>
	<g>
		<path class="st1" d="M322.49,417.5c-21.05,0-34.78-6.96-35.47-7.32l1.15-2.23c0.2,0.1,20.09,10.16,48.13,6.02l0.37,2.48
			C331.66,417.19,326.91,417.5,322.49,417.5z"/>
	</g>
	<g>
		<path class="st2" d="M484.57,227.21c-19.33-40.21-164.02-15.98-230.28,8.03c0,0-85.29,40.57-69.91,99.67
			c13.23,50.83,82.72,49.99,112.9,45.82C357.25,372.44,525.9,313.18,484.57,227.21z"/>
		<path class="st0" d="M270.91,383.76c-11.12,0-24.05-0.96-36.73-4.09c-27.97-6.9-45.13-21.85-51.01-44.44
			c-15.46-59.42,69.72-100.71,70.58-101.12c60.06-21.77,211.26-50.48,231.94-7.44c9.11,18.95,8.74,37.88-1.12,56.25
			c-29.62,55.19-138.25,92.3-187.12,99.06C292.15,382.71,282.52,383.76,270.91,383.76z M417.55,207.02
			c-51.81,0-121.16,14.31-162.83,29.41c-0.73,0.35-84.06,40.76-69.12,98.17c5.63,21.63,22.17,35.98,49.18,42.63
			c25.5,6.29,52.09,3.67,62.33,2.26c22.5-3.11,61.79-13.79,98.84-30.65c30.42-13.84,70.1-36.71,86.41-67.1
			c9.46-17.62,9.82-35.78,1.08-53.97l0,0C476.24,212.78,450.42,207.02,417.55,207.02z"/>
	</g>
	<g>
		<path class="st2" d="M250.38,275.63c0,0,1.08-38.62,15.25-86.8c0,0-2.48-20.19,11.34-27.99s19.49-9.92,48.54-9.92
			s42.16-9.92,49.95,0s40.03,80.07,40.03,80.07s13.46,17.01,0,35.43c-13.46,18.42-49.95,45.35-69.44,47.47
			S231.23,334.44,250.38,275.63z"/>
		<path class="st0" d="M297.96,319.5c-18.49,0-36.99-2.94-45.86-13.56c-6.13-7.34-7.13-17.62-2.96-30.53
			c0.11-2.96,1.74-40.7,15.23-86.69c-0.26-2.56-1.68-21.26,11.99-28.97c13.58-7.66,19.3-10.08,49.15-10.08
			c11.58,0,20.58-1.59,27.8-2.86c10.85-1.91,18.02-3.17,23.14,3.34c7.71,9.81,38.16,75.92,40.13,80.19
			c1.24,1.67,13.16,18.7-0.07,36.81c-13.98,19.12-50.59,45.83-70.31,47.98c-1.71,0.19-4.01,0.5-6.77,0.88
			C329.64,317.35,313.8,319.5,297.96,319.5z M365.51,147.76c-3.14,0-6.97,0.68-11.77,1.52c-7.32,1.29-16.44,2.9-28.24,2.9
			c-29.32,0-34.49,2.18-47.92,9.76c-12.91,7.28-10.73,26.55-10.71,26.74l0.03,0.26l-0.07,0.25c-13.96,47.46-15.19,86.09-15.2,86.48
			l-0.06,0.35c-3.95,12.12-3.12,21.64,2.45,28.31c15.57,18.66,64.27,12.03,85.06,9.2c2.78-0.38,5.11-0.69,6.83-0.88
			c18.81-2.05,55.16-28.63,68.56-46.96c12.72-17.41,0.55-33.24,0.03-33.91l-0.15-0.25c-0.32-0.7-32.26-70.12-39.88-79.81
			C372.16,148.77,369.35,147.76,365.51,147.76z"/>
	</g>
	<g>
		<path class="st0" d="M281.91,224.54c-0.64,0-1.26-0.03-1.88-0.1c-9.71-1.03-14.02-7.18-13.16-18.8c0.7-9.59,4.77-41.58,4.81-41.9
			l2.49,0.32c-0.04,0.32-4.1,32.24-4.79,41.77c-0.75,10.27,2.62,15.24,10.92,16.12c9.78,1.04,22.75-7.82,29.69-16.97
			c15.23-20.09,27.6-33.38,36.8-39.51l1.88-1.25c11.25-7.49,18.68-12.44,20.79-17.4l2.31,0.98c-2.4,5.66-9.67,10.49-21.71,18.51
			l-1.88,1.25c-8.96,5.97-21.13,19.07-36.19,38.94C305.13,215.53,292.57,224.54,281.91,224.54z"/>
	</g>
	<g>
		<path class="st0" d="M305.35,167.52l-1.5-2.02c0.58-0.43,14.46-10.54,43.31-9.46l-0.09,2.51
			C319.24,157.53,305.48,167.42,305.35,167.52z"/>
	</g>
	<g>
		<path class="st0" d="M287.03,214.74c-1.29,0-2.43-0.38-3.4-1.14c-4.62-3.59-4.71-16-0.28-36.9c1.62-7.63,0.38-10.65-0.95-11.85
			c-1.69-1.52-4.32-0.7-4.34-0.7l-0.79-2.38c0.16-0.06,4-1.3,6.79,1.2c2.66,2.37,3.24,7.17,1.74,14.25
			c-4.04,19.03-4.27,31.57-0.64,34.39c1.18,0.92,2.89,0.81,5.24-0.35c13.93-6.88,19.63-11.2,25.39-19.27
			c6.13-8.58,22.21-23.62,28.75-28.94l13.28-10.8c1.79-1.18,3.63-3.01,3.57-3.79c-0.01-0.18-0.34-0.38-0.64-0.52l1.02-2.29
			c1.64,0.73,2.05,1.82,2.11,2.61c0.22,2.72-3.79,5.48-4.59,6.01l-13.18,10.73c-6.45,5.25-22.29,20.05-28.29,28.45
			c-6.63,9.28-13.77,13.86-26.33,20.06C289.87,214.33,288.37,214.74,287.03,214.74z"/>
	</g>
	<g>
		<path class="st1" d="M410.65,396.32c0,0,8.16,18.49,60.12,40.22"/>
		<path class="st0" d="M470.28,437.7c-51.83-21.67-60.44-40.1-60.78-40.87l2.29-1.01l-1.15,0.51l1.14-0.51
			c0.08,0.18,8.8,18.39,59.46,39.58L470.28,437.7z"/>
	</g>
	<g>
		<path class="st2" d="M250.38,275.63c0,0-6.71,31.88,33.32,37.55s130.12-19.18,135.03-76.55c0,0,4.2-4.23,7.03,9.23
			c2.83,13.46-12.4,43.73-61.29,68.1C315.58,338.34,221.31,333.73,250.38,275.63z"/>
		<path class="st0" d="M300.98,329.11c-20.55,0-39.32-4.47-49.49-14.66c-6.67-6.68-12.47-18.93-2.24-39.39
			c0.28-0.56,0.95-0.82,1.53-0.62c0.6,0.21,0.95,0.82,0.82,1.44c-0.02,0.12-2.34,11.78,4.71,21.82c5.35,7.61,14.62,12.4,27.56,14.23
			c27.99,3.96,76.89-6.66,107.13-30.74c16.13-12.84,25.04-27.88,26.48-44.67c0.02-0.29,0.15-0.57,0.36-0.78
			c0.53-0.54,1.85-1.32,3.4-0.86c2.5,0.74,4.38,4.25,5.75,10.72c2.85,13.51-11.46,44.32-61.96,69.48
			C347.32,323.92,323.12,329.11,300.98,329.11z M248.73,282.54c-4.57,12.42-3.06,22.54,4.54,30.14
			c16.7,16.73,69.78,20.53,110.65,0.16c46.61-23.23,63.51-53,60.62-66.72c-1.58-7.51-3.45-8.65-3.98-8.82
			c-0.24-0.08-0.46-0.04-0.63,0.03c-1.65,17.27-10.86,32.69-27.36,45.83c-30.76,24.49-80.54,35.29-109.04,31.26
			c-13.67-1.94-23.52-7.08-29.28-15.3C250.18,293.32,248.96,287.14,248.73,282.54z"/>
	</g>
	<g>
		<path class="st1" d="M414.46,354.11l-1.51-2c0.04-0.03,3.59-2.95,4.81-13.49l2.49,0.29C418.89,350.7,414.64,353.97,414.46,354.11z"/>
	</g>
	<g>
		<path class="st1" d="M425.76,341.71l-2.36-0.84c1.66-4.69,1.67-5.67,1.66-5.76c0.01,0.16,0.17,0.57,0.61,0.78l0.49-1.03l-0.81-1.1
			l1.63,0C427.76,334.34,428.13,335.04,425.76,341.71z"/>
	</g>
	<g>
		<path class="st0" d="M253.95,316.65c-11.12-6.59-3.73-24.98-3.41-25.76l2.32,0.95c-0.07,0.17-6.9,17.16,2.36,22.65L253.95,316.65z"/>
	</g>
	<g>
		<path class="st0" d="M265.52,323.28c-14.56-7.52-8.74-21.91-8.68-22.05l2.32,0.97c-0.21,0.5-4.96,12.42,7.52,18.86L265.52,323.28z"/>
	</g>
	<g>
		<path class="st0" d="M285.57,328.2c-16.91-0.99-16.7-18.37-16.7-18.55l2.51,0.06c-0.01,0.62-0.14,15.14,14.33,15.99L285.57,328.2z"/>
	</g>
	<g>
		<path class="st0" d="M302.18,329.13c-6.76-0.33-11.72-2.34-14.75-5.98c-3.71-4.46-3.06-9.66-3.03-9.88l2.49,0.33
			c-0.01,0.04-0.52,4.38,2.49,7.97c2.57,3.06,6.91,4.76,12.92,5.05L302.18,329.13z"/>
	</g>
	<g>
		<path class="st0" d="M324.21,327.03c-8.08,0-13.71-1.85-16.75-5.52c-3.19-3.84-2.23-8.18-2.19-8.36l2.45,0.56l-1.22-0.28
			l1.23,0.28c-0.03,0.14-0.7,3.37,1.7,6.24c2.78,3.31,8.69,4.88,17.1,4.53l0.1,2.51C325.8,327.01,324.99,327.03,324.21,327.03z"/>
	</g>
	<g>
		<path class="st0" d="M343.02,322.91c-17.79,0-19.75-11.18-19.82-11.67l2.48-0.4c0.07,0.41,1.85,10.15,18.85,9.53l0.09,2.51
			C344.07,322.9,343.54,322.91,343.02,322.91z"/>
	</g>
	<g>
		<path class="st0" d="M356.59,315.9c-5.46,0-9.62-1.15-12.4-3.44c-3.08-2.53-3.23-5.55-3.24-5.68l2.51-0.1l-1.25,0.05l1.25-0.06
			c0.01,0.08,0.16,2.11,2.4,3.91c2.38,1.91,7.51,3.84,18.43,2.15l0.38,2.48C361.72,315.67,359.02,315.9,356.59,315.9z"/>
	</g>
	<g>
		<path class="st0" d="M368.19,309.35c-3.64,0-6.6-0.75-8.85-2.25c-3.23-2.15-3.71-5.08-3.72-5.2l2.48-0.39
			c0.01,0.08,0.38,2.04,2.71,3.55c2.35,1.53,7.14,2.85,16.66,0.45l0.61,2.43C374.36,308.88,371.07,309.35,368.19,309.35z"/>
	</g>
	<g>
		<path class="st0" d="M377.71,302.98c-3.5,0-6.1-0.75-7.76-2.26c-2.23-2.02-1.87-4.58-1.86-4.69l2.48,0.37l-1.24-0.18l1.24,0.17
			c0,0.06-0.15,1.42,1.1,2.52c1.35,1.19,5.22,2.79,15.93,0.11l0.61,2.43C384.1,302.47,380.6,302.98,377.71,302.98z"/>
	</g>
	<g>
		<path class="st0" d="M388.13,295.99c-2.23,0-4.01-0.5-5.34-1.51c-2.63-2-2.37-5.14-2.36-5.27l2.5,0.23l-1.25-0.12l1.25,0.11
			c0,0.08-0.12,1.93,1.41,3.07c1.28,0.96,4.72,2.06,13.41-1.25l0.89,2.35C394.45,295.2,390.94,295.99,388.13,295.99z"/>
	</g>
	<g>
		<path class="st0" d="M398.47,286.95c-1.2,0-2.31-0.19-3.32-0.56c-3.26-1.2-4.22-3.93-4.26-4.04l2.37-0.83
			c0.03,0.07,0.67,1.77,2.82,2.54c2.03,0.72,5.86,0.76,12.59-3.2l1.27,2.16C405.5,285.64,401.66,286.95,398.47,286.95z"/>
	</g>
	<g>
		<path class="st0" d="M406.71,276.79c-3.97,0-6.49-1.49-6.67-1.6l1.3-2.14c0.27,0.16,6.71,3.87,15.48-2.41l1.46,2.04
			C413.81,275.87,409.81,276.79,406.71,276.79z"/>
	</g>
	<g>
		<path class="st0" d="M411.86,265.17c-1.73,0-2.88-0.25-3.01-0.28l0.55-2.45c0.34,0.08,8.42,1.75,14.21-5.43l1.96,1.58
			C421.04,264.19,415.3,265.17,411.86,265.17z"/>
	</g>
	<g>
		<path class="st0" d="M418.65,252.52c-2.21,0-3.62-1.25-3.69-1.31l1.69-1.86l-0.84,0.93l0.83-0.94c0.04,0.04,1.03,0.86,2.52,0.63
			c1.8-0.26,3.72-1.92,5.54-4.77l2.11,1.35c-2.28,3.58-4.76,5.57-7.37,5.92C419.17,252.5,418.91,252.52,418.65,252.52z"/>
	</g>
	<path class="st0" d="M400.25,416.23c0,0,1.17,62.06,31.76,86.5H216.5c0,0,37.33-22.65,41.34-86.5l8.26,10.75
		c0,0-7.82,47.75-4.62,52.95c0,0,72.37,18.42,124.84-1.42c0,0,8.74-22.67,4.67-49.67L400.25,416.23z"/>
	<g>
		<path class="st0" d="M315.1,462.48c-26.93,0-39.66-17.94-39.82-18.16l2.07-1.43c0.77,1.11,19.27,26.99,60.6,13.04
			c41.18-13.91,68.26-27.11,69.44-81.71l2.51,0.05c-1.22,56.24-28.96,69.79-71.15,84.04C329.91,461.29,322.03,462.48,315.1,462.48z"/>
	</g>
	<path class="st3" d="M219.29,392.54c0,0,35.91-3.62,62.45,60.09c0,0,1.1,3.57,4.99,3.66c3.41,0.08,25.92-4.18,37.24,2.19
		c0,0-3.65,15.16-19.72,14.61s-24.1-16.89-24.1-16.89s-21.9-57.84-61.13-61.74C219.02,394.47,212.34,396.65,219.29,392.54z"/>
	<g>
		<path class="st0" d="M193.46,382.68c0,0,8.5-7.78,15.82-5.15s15.35,9.79,15.82,16.37S196.29,398.9,193.46,382.68z"/>
		<path class="st1" d="M217.02,398.77c-8.78,0-22.75-4.16-24.8-15.88l-0.12-0.68l0.51-0.46c0.37-0.34,9.16-8.26,17.09-5.41
			c7.6,2.73,16.13,10.18,16.65,17.46c0.09,1.19-0.38,4.05-6.55,4.81C218.96,398.71,218.03,398.77,217.02,398.77z M194.84,383.15
			c2.41,10.36,16.97,13.92,24.66,12.97c2.63-0.32,4.42-1.2,4.36-2.14c-0.44-6.07-8.11-12.8-15-15.27
			C203.31,376.7,196.73,381.6,194.84,383.15z"/>
	</g>
	<g>
		<path class="st0" d="M157.09,426.45c0,0,4.25-6.15,0-20.32c0,0,0.94-8.03,11.34-11.34s9.75-14.78,18.89-13.5
			c9.14,1.28,15.12,5.69,23.62,6.52c8.5,0.84,36.37,16.42,21.73,29.65c0,0-0.47,8.97-7.56,11.34c0,0,0.94,9.92-13.7,14.17
			c0,0-8.03,13.23-28.34,13.23s-17.48-17.01-17.48-17.01S159.45,436.38,157.09,426.45z"/>
		<path class="st1" d="M183.07,457.46c-6.95,0-12.11-1.92-15.33-5.72c-3.66-4.32-3.66-9.75-3.49-11.86
			c-1.86-1.18-6.4-4.8-8.38-13.14l-0.13-0.54l0.31-0.45c0.09-0.14,3.79-6.05-0.17-19.25l-0.07-0.25l0.03-0.26
			c0.04-0.36,1.17-8.87,12.2-12.39c4.5-1.43,6.73-4.5,8.88-7.46c2.45-3.37,4.97-6.87,10.57-6.08c4.6,0.64,8.38,2.04,12.05,3.4
			c3.77,1.39,7.33,2.71,11.52,3.12c6,0.59,23.05,8.87,26.45,19.18c1.02,3.1,1.19,7.72-3.63,12.31c-0.22,2-1.41,9.01-7.51,11.61
			c-0.14,2.77-1.67,10.58-14.16,14.38C210.6,446.41,202.03,457.46,183.07,457.46z M158.43,426.64
			c2.25,8.75,7.47,11.31,7.69,11.42l0.85,0.4l-0.15,0.94c-0.01,0.06-0.96,6.26,2.84,10.73c2.72,3.2,7.23,4.82,13.4,4.82
			c19.38,0,27.19-12.5,27.27-12.62l0.25-0.42l0.47-0.14c13.49-3.92,12.81-12.76,12.8-12.85l-0.1-0.99l0.95-0.31
			c6.17-2.06,6.7-10.13,6.7-10.22l0.03-0.51l0.38-0.35c3.42-3.09,4.5-6.36,3.3-10c-2.97-9.01-18.59-16.91-24.31-17.47
			c-4.51-0.44-8.39-1.88-12.14-3.26c-3.54-1.31-7.2-2.66-11.53-3.27c-4.09-0.57-5.81,1.8-8.19,5.07
			c-2.17,2.98-4.86,6.7-10.15,8.38c-8.59,2.73-10.19,8.77-10.43,10.06C161.99,418.32,159.38,424.83,158.43,426.64z"/>
	</g>
	<g>
		<path class="st1" d="M231.19,417.21c-1.43-11.09-30.34-12.87-41.33-12.6l-0.06-2.51c1.71-0.04,41.87-0.79,43.88,14.79
			L231.19,417.21z"/>
	</g>
	<g>
		<path class="st1" d="M223.88,429.15c-3.56-4.62-23.32-5.29-30.63-5.18l-0.04-2.51c2.81-0.05,27.7-0.3,32.67,6.16L223.88,429.15z"/>
	</g>
	<g>
		<path class="st1" d="M210.05,443.12c-1.24-2.48-13.37-3.78-23.89-3.56l-0.05-2.51c3.92-0.09,23.6-0.23,26.18,4.94L210.05,443.12z"/>
	</g>
</g>
</svg>
