<?xml version="1.0" encoding="utf-8"?>
<svg version="1.1" id="Layer_1" xmlns="http://www.w3.org/2000/svg" xmlns:xlink="http://www.w3.org/1999/xlink" x="0px" y="0px"
	 width="648px" height="648px" viewBox="0 0 648 648" style="enable-background:new 0 0 648 648;" xml:space="preserve">
<style type="text/css">
	.st0{fill:#F4E6BB;}
	.st1{fill:#471301;}
	.st2{fill:#594A42;}
	.st3{fill:#00E1C8;}
</style>
<g>
	<rect x="0" y="0" width="648" height="648" class="st0"/>
	<rect x="187.62" y="127.75" class="st1" width="308.11" height="308.11"/>
	<path class="st0" d="M281.15,311.02c0,0,1.95,85.1,60.53,79.83c58.57-5.27,95.83-68.36,89.68-83.48c0,0,6.05,9.01,10.16-3.87
		c3.22-10.09,16.85-22.19,15.35-42.55c-2.36-32.12-105.34-11.81-105.34-11.81S250.44,267.09,281.15,311.02z"/>
	<g>
		<polygon class="st1" points="317.28,330.47 305.87,322.54 305.87,298.27 308.38,298.27 308.38,321.23 318.71,328.41 		"/>
	</g>
	<path class="st1" d="M429.71,274.18c0,0-17.71-10.86-18.66,14.64c0,0,5.67,35.9-4.25,44.4c-9.92,8.5-23.15,7.09-23.15,7.09
		s-9.45-17.01-58.1-14.64c-48.65,2.36-41.33,15.77-41.33,15.77s11.39,50.99,49.75,53.28c38.35,2.28,72.44-29.22,85.27-47.92
		C441.52,314.32,429.71,274.18,429.71,274.18z M373.26,369.6c0,0-21.26,16.06-17.81,0c3.44-16.06-2.5-10.86-2.5-10.86
		c-28.34,6.61-32.59-3.52-32.59-3.52c-6.14,30.96-25.62,9.47-24.56-6.4c1.06-15.87,38.26-13.23,38.26-13.23
		C398.29,333.22,373.26,369.6,373.26,369.6z"/>
	<g>
		<path class="st1" d="M347.45,350.63c-21.05,0-34.78-6.96-35.47-7.32l1.15-2.23c0.2,0.1,20.09,10.16,48.13,6.02l0.37,2.48
			C356.62,350.32,351.87,350.63,347.45,350.63z"/>
	</g>
	<g>
		<path class="st2" d="M509.53,160.34c-19.33-40.21-164.02-15.98-230.28,8.03c0,0-85.29,40.57-69.91,99.67
			c13.23,50.83,82.72,49.99,112.9,45.82C382.22,305.57,550.87,246.31,509.53,160.34z"/>
		<path class="st0" d="M295.87,316.88c-11.12,0-24.05-0.96-36.73-4.09c-27.97-6.9-45.13-21.85-51.01-44.44
			c-15.46-59.42,69.72-100.71,70.58-101.12c60.06-21.77,211.26-50.48,231.94-7.44c9.11,18.95,8.74,37.88-1.12,56.25
			c-29.62,55.19-138.25,92.3-187.12,99.06C317.11,315.83,307.48,316.88,295.87,316.88z M442.51,140.14
			c-51.81,0-121.16,14.31-162.83,29.41c-0.73,0.35-84.06,40.76-69.12,98.17c5.63,21.63,22.17,35.98,49.18,42.63
			c25.5,6.29,52.09,3.67,62.33,2.26c22.5-3.11,61.79-13.79,98.84-30.65c30.42-13.84,70.1-36.71,86.41-67.1
			c9.46-17.62,9.82-35.78,1.08-53.97l0,0C501.2,145.9,475.38,140.14,442.51,140.14z"/>
	</g>
	<g>
		<path class="st2" d="M275.34,208.76c0,0,1.08-38.62,15.25-86.8c0,0-2.48-20.19,11.34-27.99s19.49-9.92,48.54-9.92
			s42.16-9.92,49.95,0s40.03,80.07,40.03,80.07s13.46,17.01,0,35.43c-13.46,18.42-49.95,45.35-69.44,47.47
			S256.19,267.57,275.34,208.76z"/>
		<path class="st0" d="M322.92,252.63c-18.49,0-36.99-2.94-45.86-13.56c-6.13-7.34-7.13-17.62-2.96-30.53
			c0.11-2.96,1.74-40.7,15.23-86.69c-0.26-2.56-1.68-21.26,11.99-28.97c13.58-7.66,19.3-10.08,49.15-10.08
			c11.58,0,20.58-1.59,27.8-2.86c10.85-1.91,18.02-3.17,23.14,3.34c7.71,9.81,38.16,75.92,40.13,80.19
			c1.24,1.67,13.16,18.7-0.07,36.81c-13.98,19.12-50.59,45.83-70.31,47.98c-1.71,0.19-4.01,0.5-6.77,0.88
			C354.6,250.47,338.76,252.63,322.92,252.63z M390.48,80.89c-3.14,0-6.97,0.68-11.77,1.52c-7.32,1.29-16.44,2.9-28.24,2.9
			c-29.32,0-34.49,2.18-47.92,9.76c-12.91,7.28-10.73,26.55-10.71,26.74l0.03,0.26l-0.07,0.25c-13.96,47.46-15.19,86.09-15.2,86.48
			l-0.06,0.35c-3.95,12.12-3.12,21.64,2.45,28.31c15.57,18.66,64.27,12.03,85.06,9.2c2.78-0.38,5.11-0.69,6.83-0.88
			c18.81-2.05,55.16-28.63,68.56-46.96c12.72-17.41,0.55-33.24,0.03-33.91l-0.15-0.25c-0.32-0.7-32.26-70.12-39.88-79.81
			C397.13,81.89,394.31,80.89,390.48,80.89z"/>
	</g>
	<g>
		<path class="st0" d="M306.87,157.67c-0.64,0-1.26-0.03-1.88-0.1c-9.71-1.03-14.02-7.18-13.16-18.8c0.7-9.59,4.77-41.58,4.81-41.9
			l2.49,0.32c-0.04,0.32-4.1,32.24-4.79,41.77c-0.75,10.27,2.62,15.24,10.92,16.12c9.78,1.04,22.75-7.82,29.69-16.97
			c15.23-20.09,27.6-33.38,36.8-39.51l1.88-1.25c11.25-7.49,18.68-12.44,20.79-17.4l2.31,0.98c-2.4,5.66-9.67,10.49-21.71,18.51
			l-1.88,1.25c-8.96,5.97-21.13,19.07-36.19,38.94C330.09,148.66,317.54,157.67,306.87,157.67z"/>
	</g>
	<g>
		<path class="st0" d="M330.31,100.65l-1.5-2.02c0.58-0.43,14.46-10.54,43.31-9.46l-0.09,2.51
			C344.2,90.65,330.45,100.55,330.31,100.65z"/>
	</g>
	<g>
		<path class="st0" d="M312,147.86c-1.29,0-2.43-0.38-3.4-1.14c-4.62-3.59-4.71-16-0.28-36.9c1.62-7.63,0.38-10.65-0.95-11.85
			c-1.69-1.52-4.32-0.7-4.34-0.7l-0.79-2.38c0.16-0.06,4-1.3,6.79,1.2c2.66,2.37,3.24,7.17,1.74,14.25
			c-4.04,19.03-4.27,31.57-0.64,34.39c1.18,0.92,2.89,0.81,5.24-0.35c13.93-6.88,19.63-11.2,25.39-19.27
			c6.13-8.58,22.21-23.62,28.75-28.94l13.28-10.8c1.79-1.18,3.63-3.01,3.57-3.79c-0.01-0.18-0.34-0.38-0.64-0.52l1.02-2.29
			c1.64,0.73,2.05,1.82,2.11,2.61c0.22,2.72-3.79,5.48-4.59,6.01L371.1,98.13c-6.45,5.25-22.29,20.05-28.29,28.45
			c-6.63,9.28-13.77,13.86-26.33,20.06C314.83,147.46,313.33,147.86,312,147.86z"/>
	</g>
	<g>
		<path class="st1" d="M435.61,329.44c0,0,8.16,18.49,60.12,40.22"/>
		<path class="st0" d="M495.25,370.82c-51.83-21.67-60.44-40.1-60.78-40.87l2.29-1.01l-1.15,0.51l1.14-0.51
			c0.08,0.18,8.8,18.39,59.46,39.58L495.25,370.82z"/>
	</g>
	<g>
		<path class="st1" d="M226.02,459.77c0.49-0.61,1-1.28,1.54-2.03c0.63-0.91,1.15-1.36,1.57-1.36c0.47,0,0.77,0.12,0.91,0.35
			c0.14,0.23,0.26,0.96,0.35,2.17l0.7,10.91l0.07,1.4c0,0.93-0.37,1.4-1.12,1.4c-0.49,0-0.89-0.38-1.19-1.15
			c-0.96-2.47-2.68-5.21-5.16-8.24c-2.49-3.02-5.62-4.53-9.4-4.53c-2.8,0-5.15,0.81-7.06,2.43c-1.9,1.62-3.39,3.84-4.45,6.66
			c-1.06,2.82-1.59,6.2-1.59,10.14c0,6.74,1.48,12.1,4.44,16.07s6.65,5.96,11.06,5.96c4.78,0,9.17-2.89,13.16-8.67
			c0.49-0.7,0.95-1.05,1.39-1.05c0.74,0,1.11,0.37,1.11,1.12c0,1.54-1.84,3.99-5.51,7.34c-3.67,3.36-8.27,5.04-13.8,5.04
			c-7.32,0-13.1-2.26-17.35-6.79c-4.24-4.52-6.37-10.08-6.37-16.68c0-6.58,2.14-12.28,6.42-17.12c4.28-4.84,9.69-7.26,16.23-7.26
			C216.58,455.89,221.26,457.18,226.02,459.77z"/>
		<path class="st1" d="M236.86,456.24l11.26,0.35c1.07,0,2.3-0.06,3.67-0.17c2.19-0.16,3.92-0.25,5.18-0.25
			c1.19,0,1.78,0.33,1.78,0.98c0,0.63-0.47,0.97-1.4,1.01c-1.68,0.09-2.93,0.69-3.76,1.8c-0.83,1.11-1.36,3.38-1.59,6.82
			c-0.23,3.44-0.35,7.22-0.35,11.35c0,6.62,0.31,11.07,0.94,13.34c0.63,2.27,1.98,4.09,4.06,5.44c2.07,1.35,4.83,2.03,8.25,2.03
			c3.47,0,6.1-0.74,7.87-2.22c1.77-1.48,2.99-3.8,3.66-6.97c0.66-3.17,1-9.05,1-17.64c0-5.08-0.4-8.58-1.19-10.52
			c-0.79-1.93-2.15-2.99-4.06-3.18c-1.38-0.14-2.06-0.55-2.06-1.22c0-0.68,0.56-1.01,1.68-1.01c0.54,0,1.43,0.06,2.69,0.19
			c1.3,0.11,2.67,0.16,4.09,0.16c1.31,0,2.76-0.07,4.37-0.21c1.21-0.09,2.05-0.14,2.52-0.14c1.17,0,1.75,0.34,1.75,1.01
			c0,0.54-0.42,0.85-1.26,0.94c-1.17,0.12-2.22,0.66-3.16,1.63c-0.95,0.97-1.55,2.56-1.82,4.79c-0.27,2.23-0.4,7.94-0.4,17.15
			c0,6.06-0.61,10.45-1.82,13.17c-1.21,2.72-3.33,4.83-6.35,6.33c-3.02,1.5-6.78,2.25-11.28,2.25c-3.47,0-6.49-0.31-9.06-0.92
			c-2.56-0.62-4.6-1.57-6.1-2.85c-1.5-1.28-2.59-2.76-3.25-4.44c-0.66-1.68-1-4.15-1-7.41l0.14-18.62c0-2.61-0.15-4.75-0.44-6.43
			c-0.29-1.68-0.75-2.79-1.38-3.34c-0.63-0.55-1.59-0.89-2.87-1.03c-0.82-0.09-1.32-0.22-1.52-0.37c-0.2-0.15-0.3-0.4-0.3-0.75
			C235.36,456.59,235.86,456.24,236.86,456.24z"/>
		<path class="st1" d="M306.29,481.14l-0.04,13.29c0,2.8,0.4,4.61,1.19,5.44c0.79,0.83,1.99,1.26,3.6,1.31
			c1.07,0.02,1.75,0.11,2.03,0.26c0.28,0.15,0.42,0.44,0.42,0.86c0,0.61-0.68,0.91-2.03,0.91c-0.61,0-2.02-0.07-4.23-0.21
			c-2.98-0.16-5.07-0.25-6.26-0.25c-1.31,0-3.1,0.08-5.38,0.25c-1.89,0.14-3.27,0.21-4.13,0.21c-0.75,0-1.12-0.33-1.12-0.98
			c0-0.51,0.64-0.86,1.92-1.05c1.28-0.19,2.19-0.52,2.73-0.99c0.54-0.48,0.93-1.32,1.17-2.52c0.25-1.2,0.38-4.4,0.4-9.61
			c0.02-5.21,0.03-9.79,0.03-13.75l-0.03-11.01c0-1.49-0.36-2.69-1.08-3.58c-0.72-0.9-1.99-1.35-3.81-1.35
			c-0.82,0-1.22-0.33-1.22-0.98c0-0.77,0.72-1.15,2.17-1.15l0.91,0.04c1.3,0.07,2.82,0.1,4.55,0.1l14.27-0.21
			c7.23,0,12.27,1.08,15.13,3.25c2.85,2.17,4.28,5.18,4.28,9.05c0,3.86-1.53,6.97-4.6,9.31c-3.07,2.34-8.07,3.51-15.02,3.51
			C310.52,481.28,308.57,481.23,306.29,481.14z M306.29,478.66c1.33,0.12,2.35,0.17,3.08,0.17c3.71,0,6.48-1.12,8.32-3.35
			c1.84-2.23,2.76-4.9,2.76-8c0-2.93-0.85-5.13-2.53-6.6c-1.69-1.47-3.77-2.2-6.24-2.2c-1.28,0-3.08,0.2-5.38,0.59V478.66z"/>
		<path class="st1" d="M352.56,481.14l-0.04,13.29c0,2.8,0.4,4.61,1.19,5.44c0.79,0.83,1.99,1.26,3.6,1.31
			c1.07,0.02,1.75,0.11,2.03,0.26c0.28,0.15,0.42,0.44,0.42,0.86c0,0.61-0.68,0.91-2.03,0.91c-0.61,0-2.02-0.07-4.23-0.21
			c-2.98-0.16-5.07-0.25-6.26-0.25c-1.31,0-3.1,0.08-5.38,0.25c-1.89,0.14-3.27,0.21-4.13,0.21c-0.75,0-1.12-0.33-1.12-0.98
			c0-0.51,0.64-0.86,1.92-1.05c1.28-0.19,2.19-0.52,2.73-0.99c0.54-0.48,0.93-1.32,1.17-2.52c0.25-1.2,0.38-4.4,0.4-9.61
			c0.02-5.21,0.03-9.79,0.03-13.75l-0.03-11.01c0-1.49-0.36-2.69-1.08-3.58c-0.72-0.9-1.99-1.35-3.81-1.35
			c-0.82,0-1.22-0.33-1.22-0.98c0-0.77,0.72-1.15,2.17-1.15l0.91,0.04c1.3,0.07,2.82,0.1,4.55,0.1l14.27-0.21
			c7.23,0,12.27,1.08,15.13,3.25c2.85,2.17,4.28,5.18,4.28,9.05c0,3.86-1.53,6.97-4.6,9.31c-3.07,2.34-8.07,3.51-15.02,3.51
			C356.79,481.28,354.84,481.23,352.56,481.14z M352.56,478.66c1.33,0.12,2.35,0.17,3.08,0.17c3.71,0,6.48-1.12,8.32-3.35
			c1.84-2.23,2.76-4.9,2.76-8c0-2.93-0.85-5.13-2.53-6.6c-1.69-1.47-3.77-2.2-6.24-2.2c-1.28,0-3.08,0.2-5.38,0.59V478.66z"/>
		<path class="st1" d="M384.73,456.48c0.82,0,2.49,0.07,5.04,0.2c1.94,0.1,3.48,0.15,4.62,0.15l10.74-0.28
			c0.91,0,1.36,0.31,1.36,0.94c0,0.56-0.41,0.89-1.23,0.98c-1.84,0.19-3.07,0.53-3.69,1.03c-0.62,0.5-1.1,1.66-1.43,3.48
			c-0.34,1.82-0.51,5.93-0.51,12.34c0,7.36,0.12,13.05,0.35,17.07c0.23,4.02,0.7,6.5,1.42,7.44c0.71,0.94,1.89,1.41,3.55,1.41
			c1.14,0,1.71,0.3,1.71,0.91c0,0.82-0.62,1.23-1.85,1.23c-0.35,0-0.86-0.01-1.54-0.03c-4.38-0.3-7.38-0.46-8.99-0.46
			c-3.52,0-6.12,0.11-7.8,0.32c-0.89,0.09-1.52,0.14-1.89,0.14c-0.86,0-1.29-0.34-1.29-1.01c0-0.54,0.36-0.85,1.09-0.95
			c1.98-0.25,3.32-0.81,4-1.66c0.69-0.85,1.1-2.9,1.24-6.14c0.14-3.24,0.21-8.28,0.21-15.11c0-7.2-0.13-12.03-0.38-14.46
			c-0.26-2.44-0.68-3.94-1.28-4.49c-0.6-0.56-1.73-0.91-3.41-1.05c-0.89-0.07-1.33-0.43-1.33-1.09
			C383.44,456.79,383.87,456.48,384.73,456.48z"/>
		<path class="st1" d="M423.1,456.55c11.17,12.71,20.48,22.9,27.94,30.57c0.02-1.58,0.03-2.61,0.03-3.08l0.03-13.83
			c0-3.26-0.19-5.59-0.56-7c-0.37-1.41-1.17-2.52-2.38-3.34c-1.21-0.82-2.62-1.29-4.23-1.43c-0.86-0.09-1.29-0.45-1.29-1.08
			c0-0.68,0.4-1.01,1.19-1.01c0.44,0,1.01,0.04,1.71,0.13c1.33,0.15,3.28,0.22,5.84,0.22c3.22,0,5.67-0.09,7.34-0.25
			c0.7-0.06,1.29-0.1,1.78-0.1c0.88,0,1.33,0.34,1.33,1.01c0,0.65-0.59,1.04-1.78,1.15c-1.47,0.14-2.84,0.76-4.11,1.85
			c-1.27,1.09-1.91,3.25-1.91,6.46l0.17,19.78l-0.25,14.89c0,1.28-0.4,1.92-1.19,1.92c-0.21,0-0.45-0.07-0.74-0.21
			c-0.28-0.14-1.88-1.75-4.81-4.84s-7.27-7.88-13.04-14.38c-5.77-6.49-9.82-11.15-12.15-13.97c-0.05,0.63-0.07,6.49-0.07,17.59
			c0,3.43,0.14,6.11,0.44,8.06c0.29,1.95,1.2,3.36,2.73,4.23c1.53,0.87,2.91,1.31,4.14,1.31c0.79,0,1.19,0.3,1.19,0.91
			c0,0.7-0.42,1.05-1.26,1.05c-0.54,0-1.21-0.05-2.03-0.14c-1.4-0.19-3.18-0.28-5.35-0.28c-3.47,0-5.99,0.11-7.56,0.31
			c-0.98,0.12-1.68,0.18-2.1,0.18c-0.91,0-1.36-0.38-1.36-1.15c0-0.56,0.73-0.9,2.2-1.01c2.63-0.21,4.28-1.12,4.95-2.73
			c0.66-1.61,1-3.8,1-6.58c0-12.03-0.06-19.39-0.19-22.07c-0.13-2.68-0.97-5.11-2.52-7.28c-1.55-2.17-3.42-3.46-5.61-3.88
			c-0.91-0.16-1.36-0.52-1.36-1.08c0-0.77,0.48-1.15,1.43-1.15c0.23,0,0.57,0.02,1.01,0.07c0.54,0.05,1.5,0.07,2.9,0.07
			C417.67,456.45,420.49,456.48,423.1,456.55z"/>
		<path class="st1" d="M512.7,460.12l1.01,10.14c0.05,0.47,0.07,0.84,0.07,1.12c0,0.72-0.31,1.08-0.94,1.08
			c-0.58,0-1.07-0.41-1.46-1.22c-1.82-3.75-4.22-6.81-7.19-9.16c-2.98-2.36-6.4-3.53-10.27-3.53c-4.99,0-8.89,2.09-11.7,6.26
			c-2.81,4.17-4.22,9.1-4.22,14.79c0,6.34,1.56,11.54,4.67,15.58c3.11,4.05,6.78,6.07,11,6.07c1.79,0,3.62-0.41,5.47-1.24
			c1.86-0.83,3.04-1.72,3.57-2.66s0.79-2.3,0.79-4.07c0-3.92-0.16-6.36-0.47-7.33c-0.32-0.97-0.84-1.64-1.56-2.01
			c-0.73-0.37-2.2-0.69-4.43-0.94c-0.87-0.09-1.3-0.43-1.3-1.01c0-0.68,0.41-1.01,1.23-1.01h5.29l16.15-0.35
			c0.72,0,1.09,0.3,1.09,0.91c0,0.35-0.14,0.59-0.42,0.72c-0.28,0.13-1.26,0.37-2.94,0.72c-1.26,0.28-2.06,0.7-2.41,1.26
			c-0.35,0.56-0.62,4.07-0.8,10.54c-0.05,1.44-0.09,2.25-0.14,2.42c-0.05,0.17-1.43,0.97-4.14,2.38c-2.72,1.41-5.51,2.46-8.39,3.15
			c-2.88,0.69-5.74,1.03-8.59,1.03c-4.8,0-9.09-0.95-12.87-2.83c-3.78-1.89-6.82-4.55-9.13-7.99c-2.31-3.44-3.46-7.54-3.46-12.29
			c0-6.71,2.31-12.51,6.94-17.4c4.63-4.88,10.96-7.32,19.01-7.32c2.85,0,5.41,0.34,7.71,1.03c2.3,0.69,4.9,1.67,7.82,2.96
			c0.58,0.25,1.09,0.38,1.5,0.38c0.47,0,0.83-0.34,1.08-1.01c0.33-0.89,0.76-1.33,1.29-1.33
			C512.17,457.92,512.56,458.65,512.7,460.12z"/>
	</g>
	<g>
		<path class="st1" d="M129.03,457.75c4.29,0.12,7.46,0.17,9.51,0.17c1.56,0,3.28-0.05,5.15-0.14c0.67-0.03,1.22-0.05,1.65-0.05
			c0.16,0,0.44,0,0.83,0.01c0.06,0.34,0.13,1.04,0.22,2.09l0.19,1.96c0,0.32-0.14,0.48-0.41,0.48c-0.21,0-0.4-0.2-0.59-0.6
			c-0.31-0.67-0.72-1.24-1.21-1.72c-0.49-0.48-1.06-0.8-1.71-0.95c-0.65-0.16-1.72-0.24-3.21-0.24c-0.13,1.26-0.2,2.85-0.2,4.74
			c0,1.94,0.04,3.81,0.11,5.61c0.07,1.8,0.17,2.89,0.27,3.26c0.11,0.37,0.29,0.64,0.55,0.82s0.86,0.29,1.81,0.36
			c0.32,0.02,0.48,0.14,0.48,0.35c0,0.23-0.14,0.35-0.42,0.35l-0.35-0.01l-2.57-0.06c-2,0-3.22,0.01-3.65,0.02l-1.56,0.06
			c-0.12,0-0.38-0.01-0.77-0.02c-0.19-0.04-0.28-0.14-0.28-0.31c0-0.24,0.16-0.36,0.47-0.36c0.73,0,1.29-0.15,1.66-0.46
			c0.37-0.3,0.6-0.79,0.69-1.45c0.09-0.66,0.13-2.11,0.13-4.33c0-3.51-0.11-6.36-0.32-8.57c-1.36,0-2.35,0.06-2.95,0.17
			c-0.61,0.11-1.19,0.42-1.75,0.92c-0.56,0.5-1.02,1.15-1.37,1.94c-0.14,0.31-0.3,0.47-0.48,0.47c-0.28,0-0.42-0.12-0.42-0.37
			c0-0.07,0.05-0.62,0.15-1.63C128.78,459.26,128.89,458.42,129.03,457.75z"/>
		<path class="st1" d="M160.22,465.35l0.11-3.76c0-1.05-0.11-1.8-0.32-2.25c-0.21-0.44-0.67-0.68-1.35-0.7
			c-0.56-0.02-0.84-0.16-0.84-0.4c0-0.25,0.17-0.38,0.5-0.38c0.38,0,0.96,0.02,1.73,0.06c1,0.05,1.55,0.07,1.67,0.07
			c1.4,0,2.63-0.03,3.68-0.1c0.2-0.01,0.34-0.02,0.42-0.02c0.31,0,0.47,0.12,0.47,0.35c0,0.25-0.18,0.39-0.53,0.39
			c-0.58,0.01-0.99,0.09-1.23,0.24c-0.24,0.15-0.41,0.38-0.51,0.69c-0.09,0.31-0.17,1.4-0.23,3.27c-0.06,1.87-0.09,3.16-0.09,3.86
			c0,2.91,0.02,4.69,0.06,5.34c0.04,0.65,0.19,1.11,0.45,1.36c0.26,0.26,0.7,0.38,1.33,0.38c0.39,0,0.58,0.12,0.58,0.37
			c0,0.21-0.15,0.32-0.44,0.32c-0.1,0-0.31-0.01-0.64-0.04l-3.42-0.12c-0.21,0-0.6,0.02-1.19,0.05c-1.12,0.08-1.85,0.11-2.18,0.11
			c-0.3,0-0.44-0.12-0.44-0.36c0-0.21,0.12-0.32,0.37-0.32c0.59,0,1.02-0.1,1.29-0.31s0.47-0.68,0.59-1.42
			c0.12-0.74,0.19-2.23,0.19-4.45c0-0.23-0.01-0.58-0.03-1.04c-1.44-0.04-2.72-0.06-3.84-0.06c-1.28,0-2.29,0.04-3.03,0.12
			c-0.09,1.66-0.14,3.16-0.14,4.51c0,0.96,0.11,1.62,0.31,1.99c0.21,0.37,0.65,0.57,1.32,0.61c0.32,0.02,0.48,0.13,0.48,0.36
			c0,0.23-0.17,0.35-0.51,0.35c-0.12,0-0.31-0.01-0.55-0.04c-0.98-0.09-2.01-0.14-3.09-0.14c-0.5,0-1.18,0.02-2.02,0.07
			c-0.6,0.04-0.98,0.06-1.15,0.06c-0.43,0-0.64-0.12-0.64-0.37c0-0.2,0.17-0.32,0.51-0.36c0.63-0.07,1.07-0.2,1.29-0.41
			c0.23-0.21,0.4-0.6,0.51-1.17c0.11-0.57,0.18-2.21,0.2-4.9c0.02-2.7,0.03-4.17,0.03-4.42c0-1.22-0.04-2.1-0.13-2.65
			c-0.09-0.55-0.23-0.92-0.44-1.11c-0.21-0.19-0.52-0.31-0.95-0.36c-0.33-0.05-0.54-0.1-0.62-0.14c-0.08-0.04-0.12-0.14-0.12-0.29
			c0-0.25,0.14-0.37,0.42-0.37c0.36,0,0.95,0.03,1.8,0.1c0.47,0.03,1,0.05,1.6,0.05l3.5-0.12c0.4,0,0.61,0.13,0.61,0.38
			c0,0.25-0.16,0.37-0.5,0.37c-0.54,0-0.92,0.07-1.13,0.2c-0.21,0.13-0.36,0.39-0.46,0.78c-0.1,0.39-0.15,1.14-0.15,2.26l0.02,3.52
			c1.05,0.11,2.18,0.16,3.39,0.16C157.95,465.51,159.11,465.46,160.22,465.35z"/>
		<path class="st1" d="M180.86,458c0.26,1.29,0.52,2.58,0.78,3.86c0,0.24-0.12,0.36-0.36,0.36c-0.13,0-0.28-0.12-0.44-0.35
			c-0.85-1.24-1.63-2.05-2.34-2.44c-0.71-0.39-1.72-0.59-3.05-0.59c-0.74,0-1.46,0.06-2.16,0.19c-0.15,1.46-0.22,3.06-0.22,4.8
			c0,0.3,0.01,0.79,0.03,1.49l0.94,0.01c0.59,0,1.09-0.08,1.52-0.24c0.43-0.16,0.79-0.5,1.08-1.03c0.3-0.52,0.47-0.86,0.51-1.01
			c0.07-0.26,0.2-0.4,0.38-0.4c0.23,0,0.35,0.1,0.35,0.3c0,0.06-0.01,0.12-0.03,0.2c-0.1,0.51-0.15,2.04-0.15,4.59
			c0,0.36,0.03,0.68,0.1,0.97c0.02,0.08,0.03,0.15,0.03,0.21c0,0.23-0.13,0.35-0.4,0.35c-0.18,0-0.32-0.22-0.42-0.66
			c-0.17-0.77-0.54-1.35-1.13-1.75c-0.59-0.4-1.52-0.61-2.78-0.63c-0.04,1.39-0.06,2.3-0.06,2.74c0,1.88,0.03,3,0.09,3.35
			s0.27,0.64,0.63,0.86c0.36,0.22,0.98,0.33,1.85,0.33c3.15,0,5.21-1,6.21-3c0.14-0.28,0.29-0.42,0.46-0.42
			c0.24,0,0.36,0.1,0.36,0.3c0,0.13-0.02,0.3-0.07,0.51l-0.81,3.55l-4.48-0.01c-1.26-0.01-2.44-0.04-3.53-0.09
			c-1.09-0.05-1.95-0.08-2.57-0.08c-0.69,0-1.74,0.04-3.13,0.12c-0.17,0.01-0.3,0.02-0.38,0.02c-0.39,0-0.58-0.13-0.58-0.38
			c0-0.23,0.16-0.35,0.47-0.35c0.8,0,1.34-0.22,1.61-0.65c0.28-0.43,0.42-1.32,0.42-2.65l0.07-6.37c0-2.18-0.03-3.51-0.08-4.01
			c-0.05-0.5-0.2-0.84-0.43-1.01c-0.23-0.18-0.66-0.31-1.3-0.4c-0.26-0.03-0.4-0.15-0.4-0.35c0-0.25,0.15-0.37,0.46-0.37l2.98,0.09
			L180.86,458z"/>
	</g>
	<g>
		<path class="st1" d="M235.64,519.06l1.94,11.46l0.08,0.53c0,0.73-0.26,1.1-0.78,1.1c-0.35,0-0.69-0.28-1.03-0.84
			c-1.95-3.04-4.16-5.39-6.62-7.08c-2.46-1.68-6.43-2.52-11.9-2.52c-3.78,0-5.89,0.4-6.35,1.19c-0.46,0.79-0.68,7.01-0.68,18.65
			c2.81,0,4.96-0.2,6.47-0.59c1.5-0.39,2.67-1.08,3.49-2.06c0.82-0.98,1.57-2.79,2.26-5.44c0.18-0.71,0.47-1.06,0.87-1.06
			c0.76,0,1.14,0.48,1.14,1.44l-0.27,12.1c-0.08,4.2-0.19,6.46-0.34,6.77c-0.15,0.32-0.43,0.47-0.83,0.47
			c-0.63,0-1.01-0.51-1.14-1.52c-0.28-2.36-1.08-4.22-2.41-5.58c-1.33-1.36-4.41-2.04-9.24-2.04l-0.04,14.08
			c0,2.76,0.2,4.72,0.59,5.88s0.98,1.95,1.76,2.37c0.78,0.42,2.01,0.65,3.68,0.7c1.21,0.03,1.99,0.11,2.31,0.25
			c0.33,0.14,0.49,0.45,0.49,0.93c0,0.81-0.57,1.22-1.71,1.22c-1.04,0-3.01-0.09-5.92-0.27c-2.45-0.15-4.3-0.23-5.54-0.23
			l-11.99,0.38c-1.21,0-1.82-0.37-1.82-1.1c0-0.68,0.74-1.05,2.24-1.1c2.58-0.1,4.12-1.25,4.63-3.45c0.5-2.2,0.76-10.18,0.76-23.94
			c0-8.94-0.32-14.27-0.97-15.99c-0.64-1.72-2.22-2.58-4.72-2.58l-1.02,0.04c-0.91,0-1.37-0.38-1.37-1.14c0-0.71,0.73-1.06,2.2-1.06
			H235.64z"/>
		<path class="st1" d="M254.35,517.43h2.59c3.34,7.23,8.05,18.62,14.14,34.15c2.8,7.13,4.74,11.46,5.8,12.98
			c1.06,1.52,2.75,2.44,5.05,2.77c0.76,0.1,1.14,0.43,1.14,0.99c0,0.78-0.49,1.18-1.48,1.18c-0.53,0-1.91-0.09-4.14-0.27
			c-2.63-0.23-4.84-0.34-6.64-0.34c-1.74,0-4.02,0.1-6.83,0.3c-2.1,0.15-3.48,0.23-4.14,0.23c-1.16,0-1.75-0.37-1.75-1.1
			c0-0.56,0.4-0.87,1.21-0.95c3.11-0.28,4.67-1.5,4.67-3.67c0-1.02-0.45-2.88-1.36-5.59c-0.91-2.71-1.88-5.17-2.91-7.39
			c-1.65-0.02-2.93-0.04-3.84-0.04c-5.1,0-9.07,0.01-11.91,0.04c-2.18,5.97-3.27,9.93-3.27,11.86c0,1.38,0.54,2.46,1.63,3.23
			c1.09,0.77,2.26,1.21,3.53,1.34c0.96,0.1,1.44,0.49,1.44,1.18c0,0.68-0.52,1.02-1.56,1.02c-0.41,0-1.47-0.06-3.19-0.19
			c-2.23-0.18-3.85-0.26-4.86-0.26c-2,0-3.9,0.13-5.69,0.38c-0.46,0.08-0.84,0.11-1.14,0.11c-0.94,0-1.4-0.38-1.4-1.14
			c0-0.56,0.3-0.92,0.91-1.1c1.52-0.43,2.71-0.96,3.57-1.59s1.79-1.84,2.79-3.63c1-1.79,2.2-4.65,3.59-8.6
			C243.45,544.47,248.13,532.51,254.35,517.43z M251.67,530.67l-6.59,16.96l13.42-0.19c-0.71-1.98-1.79-4.71-3.26-8.16
			C253.64,535.54,252.45,532.67,251.67,530.67z"/>
		<path class="st1" d="M313.27,543.42c3.41,0.48,6.21,1.52,8.42,3.1c2.21,1.59,3.87,4.74,4.98,9.46c1.06,4.41,2.18,7.33,3.37,8.74
			c1.19,1.41,2.86,2.18,5.01,2.3c1.19,0.08,1.78,0.46,1.78,1.14c0,0.73-0.96,1.1-2.88,1.1l-14.61-0.38
			c-1.52-1.52-2.56-4.23-3.11-8.13c-0.71-4.99-1.44-8.51-2.2-10.56c-0.76-2.05-1.9-3.52-3.41-4.41c-1.52-0.89-3.28-1.33-5.27-1.33
			c-0.58,0-1.38,0.04-2.39,0.12c0,8.91,0.03,14.39,0.1,16.45c0.06,2.06,0.47,3.54,1.23,4.44c0.76,0.9,2.2,1.4,4.33,1.5
			c1.14,0.08,1.71,0.46,1.71,1.14c0,0.68-0.49,1.02-1.48,1.02l-11.65-0.3c-1.57,0-3.58,0.06-6.03,0.19
			c-2.25,0.13-3.68,0.19-4.29,0.19c-1.04,0-1.56-0.37-1.56-1.1c0-0.71,0.46-1.06,1.37-1.06c1.42,0,2.73-0.35,3.93-1.06
			c1.2-0.71,1.8-3.71,1.8-8.99l-0.04-7.06l0.04-13.62c0-7.03-0.31-11.32-0.93-12.88c-0.62-1.56-2.28-2.36-4.99-2.41
			c-1.06-0.03-1.59-0.39-1.59-1.1c0-0.74,0.71-1.1,2.12-1.1c7.13,0,13.18-0.15,18.14-0.45c2.2-0.15,4.19-0.23,5.96-0.23
			c5.74,0,10.25,1.14,13.51,3.43c3.26,2.29,4.9,5.28,4.9,8.97c0,2.48-0.77,4.71-2.32,6.68c-1.54,1.97-3.47,3.44-5.79,4.4
			C319.1,542.56,316.38,543.17,313.27,543.42z M302.95,541.83c0.66,0.03,1.15,0.04,1.48,0.04c2.2,0,4.42-0.41,6.66-1.24
			c2.24-0.82,3.82-2.14,4.74-3.95c0.92-1.81,1.38-3.74,1.38-5.79c0-3.16-0.94-5.63-2.81-7.4c-1.87-1.77-4.29-2.65-7.25-2.65
			c-1.24,0-2.64,0.23-4.21,0.68V541.83z"/>
		<path class="st1" d="M357.47,518.99c0.66,1.57,1.87,4.05,3.65,7.45c1.77,3.4,3.53,6.86,5.26,10.36c1.74,3.5,3.69,7.19,5.87,11.06
			c1.75,3.06,2.74,4.86,2.97,5.39c6.34-14.19,11.13-25.61,14.39-34.26c6.08,0,11.68-0.15,16.82-0.46c0.48-0.02,0.83-0.04,1.06-0.04
			c1.04,0,1.56,0.4,1.56,1.21c0,0.71-0.4,1.06-1.21,1.06c-2.88,0-4.78,0.98-5.67,2.94c-0.9,1.96-1.35,6.73-1.35,14.32l-0.04,18.59
			c0,3.79,0.5,6.45,1.5,7.97c1,1.52,2.62,2.32,4.87,2.39c1.09,0.02,1.63,0.39,1.63,1.1c0,0.38-0.23,0.7-0.68,0.95l-10.65-0.08
			c-3.26,0-7.72,0.12-13.37,0.38c-0.48-0.33-0.72-0.68-0.72-1.06c0-0.58,0.65-0.97,1.96-1.18c1.33-0.23,2.29-0.56,2.88-0.99
			c0.59-0.43,1.04-1.23,1.34-2.39c0.3-1.16,0.45-2.87,0.45-5.13l0.15-16.98c0-8.68,0.01-13.69,0.04-15
			c-6.87,15.99-11.13,26.19-12.77,30.62l-3.83,10.29c-0.43,1.09-0.86,1.63-1.29,1.63c-0.46,0-1-0.67-1.63-2.01
			c-1.85-3.9-8.45-16.76-19.79-38.59c-0.13,6.28-0.19,14.75-0.19,25.41c0,5.62,0.32,9.17,0.95,10.65c0.63,1.48,2.4,2.35,5.31,2.6
			c0.96,0.1,1.44,0.46,1.44,1.06c0,0.66-0.39,0.99-1.18,0.99c-0.28,0-0.58-0.01-0.91-0.04c-3.04-0.23-5.21-0.34-6.53-0.34
			c-3.59,0-6.31,0.13-8.16,0.38c-0.36,0.05-0.62,0.08-0.8,0.08c-0.89,0-1.33-0.37-1.33-1.1c0-0.36,0.11-0.6,0.32-0.74
			c0.22-0.14,0.79-0.31,1.73-0.51c2.43-0.46,4.01-1.33,4.76-2.62c0.74-1.29,1.12-3.4,1.12-6.34l0.19-21.69c0-4.94-0.13-8.2-0.38-9.8
			s-0.87-2.82-1.86-3.68c-0.99-0.86-2.6-1.51-4.82-1.94c-0.83-0.18-1.25-0.6-1.25-1.25c0-0.71,0.46-1.06,1.36-1.06
			c0.2,0,0.48,0.01,0.84,0.04C344.08,518.87,349.4,518.99,357.47,518.99z"/>
		<path class="st1" d="M454.27,519.18c0.81,3.95,1.61,7.89,2.39,11.84c0,0.74-0.37,1.1-1.1,1.1c-0.4,0-0.86-0.35-1.36-1.06
			c-2.61-3.78-4.99-6.27-7.16-7.48c-2.16-1.21-5.28-1.82-9.36-1.82c-2.28,0-4.48,0.19-6.6,0.57c-0.46,4.47-0.68,9.37-0.68,14.69
			c0,0.91,0.02,2.44,0.08,4.58l2.88,0.04c1.8,0,3.35-0.25,4.65-0.74c1.3-0.5,2.41-1.54,3.32-3.15c0.91-1.61,1.43-2.64,1.56-3.09
			c0.23-0.81,0.62-1.22,1.18-1.22c0.71,0,1.06,0.3,1.06,0.91c0,0.18-0.03,0.38-0.08,0.61c-0.3,1.57-0.46,6.26-0.46,14.08
			c0,1.09,0.1,2.08,0.29,2.96c0.06,0.25,0.09,0.47,0.09,0.64c0,0.71-0.41,1.06-1.22,1.06c-0.56,0-0.99-0.67-1.29-2.01
			c-0.51-2.35-1.66-4.14-3.47-5.37c-1.8-1.23-4.64-1.86-8.53-1.92c-0.13,4.25-0.19,7.05-0.19,8.39c0,5.77,0.09,9.19,0.26,10.28
			c0.18,1.09,0.82,1.97,1.94,2.64c1.11,0.67,3,1,5.66,1c9.64,0,15.98-3.06,19.02-9.18c0.43-0.86,0.89-1.29,1.4-1.29
			c0.73,0,1.1,0.3,1.1,0.91c0,0.4-0.08,0.92-0.23,1.55l-2.47,10.89l-13.74-0.04c-3.87-0.03-7.48-0.12-10.83-0.27
			c-3.35-0.15-5.98-0.23-7.87-0.23c-2.12,0-5.33,0.13-9.6,0.38c-0.53,0.05-0.92,0.08-1.18,0.08c-1.19,0-1.78-0.39-1.78-1.18
			c0-0.71,0.48-1.06,1.44-1.06c2.45,0,4.1-0.66,4.95-1.99c0.85-1.33,1.27-4.04,1.27-8.13l0.23-19.53c0-6.67-0.08-10.77-0.25-12.3
			s-0.6-2.57-1.31-3.11c-0.71-0.54-2.04-0.95-3.98-1.23c-0.81-0.1-1.22-0.46-1.22-1.06c0-0.76,0.47-1.14,1.4-1.14l9.15,0.28
			L454.27,519.18z"/>
		<path class="st1" d="M491.35,543.42c3.41,0.48,6.21,1.52,8.42,3.1c2.21,1.59,3.87,4.74,4.98,9.46c1.06,4.41,2.18,7.33,3.37,8.74
			c1.19,1.41,2.86,2.18,5.01,2.3c1.19,0.08,1.78,0.46,1.78,1.14c0,0.73-0.96,1.1-2.88,1.1l-14.61-0.38
			c-1.52-1.52-2.56-4.23-3.11-8.13c-0.71-4.99-1.44-8.51-2.2-10.56c-0.76-2.05-1.9-3.52-3.41-4.41c-1.52-0.89-3.28-1.33-5.27-1.33
			c-0.58,0-1.38,0.04-2.39,0.12c0,8.91,0.03,14.39,0.1,16.45c0.06,2.06,0.47,3.54,1.23,4.44c0.76,0.9,2.2,1.4,4.33,1.5
			c1.14,0.08,1.71,0.46,1.71,1.14c0,0.68-0.49,1.02-1.48,1.02l-11.65-0.3c-1.57,0-3.58,0.06-6.03,0.19
			c-2.25,0.13-3.68,0.19-4.29,0.19c-1.04,0-1.56-0.37-1.56-1.1c0-0.71,0.46-1.06,1.37-1.06c1.42,0,2.73-0.35,3.93-1.06
			c1.2-0.71,1.8-3.71,1.8-8.99l-0.04-7.06l0.04-13.62c0-7.03-0.31-11.32-0.93-12.88c-0.62-1.56-2.28-2.36-4.99-2.41
			c-1.06-0.03-1.59-0.39-1.59-1.1c0-0.74,0.71-1.1,2.12-1.1c7.13,0,13.18-0.15,18.14-0.45c2.2-0.15,4.19-0.23,5.96-0.23
			c5.74,0,10.25,1.14,13.51,3.43c3.26,2.29,4.9,5.28,4.9,8.97c0,2.48-0.77,4.71-2.32,6.68c-1.54,1.97-3.47,3.44-5.79,4.4
			C497.17,542.56,494.46,543.17,491.35,543.42z M481.02,541.83c0.66,0.03,1.15,0.04,1.48,0.04c2.2,0,4.42-0.41,6.66-1.24
			c2.24-0.82,3.82-2.14,4.74-3.95c0.92-1.81,1.38-3.74,1.38-5.79c0-3.16-0.94-5.63-2.81-7.4c-1.87-1.77-4.29-2.65-7.25-2.65
			c-1.24,0-2.64,0.23-4.21,0.68V541.83z"/>
	</g>
	<g>
		<path class="st2" d="M275.34,208.76c0,0-6.71,31.88,33.32,37.55s130.12-19.18,135.03-76.55c0,0,4.2-4.23,7.03,9.23
			c2.83,13.46-12.4,43.73-61.29,68.1S246.27,266.86,275.34,208.76z"/>
		<path class="st0" d="M325.94,262.24c-20.55,0-39.32-4.47-49.49-14.66c-6.67-6.68-12.47-18.93-2.24-39.39
			c0.28-0.56,0.95-0.82,1.53-0.62c0.6,0.21,0.95,0.82,0.82,1.44c-0.02,0.12-2.34,11.78,4.71,21.82c5.35,7.61,14.62,12.4,27.56,14.23
			c27.99,3.96,76.89-6.66,107.13-30.74c16.13-12.84,25.04-27.88,26.48-44.67c0.02-0.29,0.15-0.57,0.36-0.78
			c0.53-0.54,1.85-1.32,3.4-0.86c2.5,0.74,4.38,4.25,5.75,10.72c2.85,13.51-11.46,44.32-61.96,69.48
			C372.29,257.05,348.08,262.24,325.94,262.24z M273.69,215.67c-4.57,12.42-3.06,22.54,4.54,30.14
			c16.7,16.73,69.78,20.53,110.65,0.16c46.61-23.23,63.51-53,60.62-66.72c-1.58-7.51-3.45-8.65-3.98-8.82
			c-0.24-0.08-0.46-0.04-0.63,0.03c-1.65,17.27-10.86,32.69-27.36,45.83c-30.76,24.49-80.54,35.29-109.04,31.26
			c-13.67-1.94-23.52-7.08-29.28-15.3C275.14,226.45,273.92,220.27,273.69,215.67z"/>
	</g>
	<g>
		<path class="st1" d="M439.43,287.23l-1.51-2c0.04-0.03,3.59-2.95,4.81-13.49l2.49,0.29C443.85,283.83,439.61,287.1,439.43,287.23z"/>
	</g>
	<g>
		<path class="st1" d="M450.73,274.83l-2.36-0.84c1.66-4.69,1.67-5.67,1.66-5.76c0.01,0.16,0.17,0.57,0.61,0.78l0.49-1.03l-0.81-1.1
			l1.63,0C452.73,267.47,453.09,268.17,450.73,274.83z"/>
	</g>
	<g>
		<path class="st0" d="M278.92,249.78c-11.12-6.59-3.73-24.98-3.41-25.76l2.32,0.95c-0.07,0.17-6.9,17.16,2.36,22.65L278.92,249.78z"/>
	</g>
	<g>
		<path class="st0" d="M290.49,256.41c-14.56-7.52-8.74-21.91-8.68-22.05l2.32,0.97c-0.21,0.5-4.96,12.42,7.52,18.86L290.49,256.41z"/>
	</g>
	<g>
		<path class="st0" d="M310.53,261.33c-16.91-0.99-16.7-18.37-16.7-18.55l2.51,0.06c-0.01,0.62-0.14,15.14,14.33,15.99L310.53,261.33z"/>
	</g>
	<g>
		<path class="st0" d="M327.14,262.25c-6.76-0.33-11.72-2.34-14.75-5.98c-3.71-4.46-3.06-9.66-3.03-9.88l2.49,0.33
			c-0.01,0.04-0.52,4.38,2.49,7.97c2.57,3.06,6.91,4.76,12.92,5.05L327.14,262.25z"/>
	</g>
	<g>
		<path class="st0" d="M349.18,260.16c-8.08,0-13.71-1.85-16.75-5.52c-3.19-3.84-2.23-8.18-2.19-8.36l2.45,0.56l-1.22-0.28
			l1.23,0.28c-0.03,0.14-0.7,3.37,1.7,6.24c2.78,3.31,8.69,4.88,17.1,4.53l0.1,2.51C350.76,260.14,349.96,260.16,349.18,260.16z"/>
	</g>
	<g>
		<path class="st0" d="M367.99,256.04c-17.79,0-19.75-11.18-19.82-11.67l2.48-0.4c0.07,0.41,1.85,10.15,18.85,9.53l0.09,2.51
			C369.04,256.03,368.5,256.04,367.99,256.04z"/>
	</g>
	<g>
		<path class="st0" d="M381.55,249.02c-5.46,0-9.62-1.15-12.4-3.44c-3.08-2.53-3.23-5.55-3.24-5.68l2.51-0.1l-1.25,0.05l1.25-0.06
			c0.01,0.08,0.16,2.11,2.4,3.91c2.38,1.91,7.51,3.84,18.43,2.15l0.38,2.48C386.68,248.79,383.98,249.02,381.55,249.02z"/>
	</g>
	<g>
		<path class="st0" d="M393.16,242.47c-3.64,0-6.6-0.75-8.85-2.25c-3.23-2.15-3.71-5.08-3.72-5.2l2.48-0.39
			c0.01,0.08,0.38,2.04,2.71,3.55c2.35,1.53,7.14,2.85,16.66,0.45l0.61,2.43C399.33,242.01,396.03,242.47,393.16,242.47z"/>
	</g>
	<g>
		<path class="st0" d="M402.67,236.11c-3.5,0-6.1-0.75-7.76-2.26c-2.23-2.02-1.87-4.58-1.86-4.69l2.48,0.37l-1.24-0.19l1.24,0.17
			c0,0.06-0.15,1.42,1.1,2.52c1.35,1.19,5.22,2.79,15.93,0.11l0.61,2.43C409.07,235.6,405.56,236.11,402.67,236.11z"/>
	</g>
	<g>
		<path class="st0" d="M413.1,229.12c-2.23,0-4.01-0.5-5.34-1.51c-2.63-2-2.37-5.14-2.36-5.27l2.5,0.23l-1.25-0.12l1.25,0.11
			c0,0.08-0.12,1.93,1.41,3.07c1.28,0.96,4.72,2.06,13.41-1.25l0.89,2.35C419.41,228.32,415.9,229.12,413.1,229.12z"/>
	</g>
	<g>
		<path class="st0" d="M423.44,220.08c-1.2,0-2.31-0.19-3.32-0.56c-3.26-1.2-4.22-3.93-4.26-4.04l2.37-0.83
			c0.03,0.07,0.67,1.77,2.82,2.54c2.03,0.72,5.86,0.76,12.59-3.2l1.27,2.16C430.46,218.77,426.62,220.08,423.44,220.08z"/>
	</g>
	<g>
		<path class="st0" d="M431.67,209.91c-3.97,0-6.49-1.49-6.67-1.6l1.3-2.14c0.27,0.16,6.71,3.87,15.48-2.41l1.46,2.04
			C438.78,209,434.78,209.91,431.67,209.91z"/>
	</g>
	<g>
		<path class="st0" d="M436.82,198.29c-1.73,0-2.88-0.25-3.01-0.28l0.55-2.45c0.34,0.08,8.42,1.75,14.21-5.43l1.96,1.58
			C446,197.32,440.27,198.29,436.82,198.29z"/>
	</g>
	<g>
		<path class="st0" d="M443.62,185.64c-2.21,0-3.62-1.25-3.69-1.31l1.69-1.86l-0.84,0.93l0.83-0.94c0.04,0.04,1.03,0.86,2.52,0.63
			c1.8-0.26,3.72-1.92,5.54-4.77l2.11,1.35c-2.28,3.58-4.76,5.57-7.37,5.92C444.14,185.63,443.87,185.64,443.62,185.64z"/>
	</g>
	<path class="st0" d="M425.22,349.36c0,0,1.17,62.06,31.76,86.5H241.46c0,0,37.33-22.65,41.34-86.5l8.26,10.75
		c0,0-7.82,47.75-4.62,52.95c0,0,72.37,18.42,124.84-1.42c0,0,8.74-22.67,4.67-49.67L425.22,349.36z"/>
	<g>
		<path class="st0" d="M340.06,395.61c-26.93,0-39.66-17.94-39.82-18.16l2.07-1.43c0.77,1.11,19.27,26.99,60.6,13.04
			c41.18-13.91,68.26-27.11,69.44-81.71l2.51,0.05c-1.22,56.24-28.96,69.79-71.15,84.04C354.87,394.42,347,395.61,340.06,395.61z"/>
	</g>
	<path class="st3" d="M244.25,325.67c0,0,35.91-3.62,62.45,60.09c0,0,1.1,3.57,4.99,3.66c3.41,0.08,25.92-4.18,37.24,2.19
		c0,0-3.65,15.16-19.72,14.61s-24.1-16.89-24.1-16.89s-21.9-57.84-61.13-61.74C243.98,327.59,237.3,329.78,244.25,325.67z"/>
	<g>
		<path class="st0" d="M218.42,315.8c0,0,8.5-7.78,15.82-5.15c7.32,2.63,15.35,9.79,15.82,16.37
			C250.54,333.59,221.26,332.02,218.42,315.8z"/>
		<path class="st1" d="M241.99,331.89c-8.78,0-22.75-4.16-24.8-15.88l-0.12-0.68l0.51-0.46c0.37-0.34,9.16-8.26,17.09-5.41
			c7.6,2.73,16.13,10.18,16.65,17.46c0.09,1.19-0.38,4.05-6.55,4.81C243.93,331.84,242.99,331.89,241.99,331.89z M219.8,316.28
			c2.41,10.36,16.97,13.92,24.66,12.97c2.63-0.32,4.42-1.2,4.36-2.14c-0.44-6.07-8.11-12.8-15-15.27
			C228.28,309.83,221.69,314.73,219.8,316.28z"/>
	</g>
	<g>
		<path class="st0" d="M182.05,359.58c0,0,4.25-6.15,0-20.32c0,0,0.94-8.03,11.34-11.34c10.39-3.31,9.75-14.78,18.89-13.5
			c9.14,1.28,15.12,5.69,23.62,6.52c8.5,0.84,36.37,16.42,21.73,29.65c0,0-0.47,8.97-7.56,11.34c0,0,0.94,9.92-13.7,14.17
			c0,0-8.03,13.23-28.34,13.23s-17.48-17.01-17.48-17.01S184.41,369.5,182.05,359.58z"/>
		<path class="st1" d="M208.03,390.58c-6.95,0-12.11-1.92-15.33-5.72c-3.66-4.32-3.66-9.75-3.49-11.86
			c-1.86-1.18-6.4-4.8-8.38-13.14l-0.13-0.54l0.31-0.45c0.09-0.14,3.79-6.05-0.17-19.25l-0.07-0.25l0.03-0.26
			c0.04-0.36,1.17-8.87,12.2-12.39c4.5-1.43,6.73-4.5,8.88-7.46c2.45-3.37,4.97-6.87,10.57-6.08c4.6,0.64,8.38,2.04,12.05,3.4
			c3.77,1.39,7.33,2.71,11.52,3.12c6,0.59,23.05,8.87,26.45,19.18c1.02,3.1,1.19,7.72-3.63,12.31c-0.22,2-1.41,9.01-7.51,11.61
			c-0.14,2.77-1.67,10.58-14.16,14.38C235.56,379.53,227,390.58,208.03,390.58z M183.39,359.77c2.25,8.75,7.47,11.31,7.69,11.42
			l0.85,0.4l-0.15,0.94c-0.01,0.06-0.96,6.26,2.84,10.73c2.72,3.2,7.23,4.82,13.4,4.82c19.38,0,27.19-12.5,27.27-12.62l0.25-0.42
			l0.47-0.14c13.49-3.92,12.81-12.76,12.8-12.85l-0.1-0.99l0.95-0.31c6.17-2.06,6.7-10.13,6.7-10.22l0.03-0.51l0.38-0.35
			c3.42-3.09,4.5-6.36,3.3-10c-2.97-9.01-18.59-16.91-24.31-17.47c-4.51-0.44-8.39-1.88-12.14-3.26c-3.54-1.31-7.2-2.66-11.53-3.27
			c-4.09-0.57-5.81,1.8-8.19,5.07c-2.17,2.98-4.86,6.7-10.15,8.38c-8.59,2.73-10.19,8.77-10.43,10.06
			C186.95,351.45,184.35,357.96,183.39,359.77z"/>
	</g>
	<g>
		<path class="st1" d="M256.15,350.34c-1.43-11.09-30.34-12.87-41.33-12.6l-0.06-2.51c1.71-0.04,41.87-0.79,43.88,14.79L256.15,350.34z"/>
	</g>
	<g>
		<path class="st1" d="M248.84,362.28c-3.56-4.62-23.32-5.29-30.63-5.18l-0.04-2.51c2.81-0.05,27.7-0.3,32.67,6.16L248.84,362.28z"/>
	</g>
	<g>
		<path class="st1" d="M235.02,376.25c-1.24-2.48-13.37-3.78-23.89-3.56l-0.05-2.51c3.92-0.09,23.6-0.23,26.18,4.94L235.02,376.25z"/>
	</g>
</g>
</svg>
